<?xml version="1.0" encoding="UTF-8"?>
<svg width="200px" height="200px" viewBox="0 0 200 200" version="1.1" xmlns="http://www.w3.org/2000/svg" xmlns:xlink="http://www.w3.org/1999/xlink">
    <!-- Generator: Sketch 42 (36781) - http://www.bohemiancoding.com/sketch -->
    <title>beer</title>
    <desc>Created with Sketch.</desc>
    <defs></defs>
    <g id="Page-1" stroke="none" stroke-width="1" fill="none" fill-rule="evenodd">
        <g id="beer" fill-rule="nonzero" fill="#000000">
            <g id="noun_145045_cc" transform="translate(3.000000, 28.000000)">
                <path d="M183.130435,45.1058824 C182.494565,44.0470588 181.646739,43.2 181.01087,42.1411765 L180.586957,41.7176471 C174.86413,33.4588235 168.081522,26.2588235 160.451087,20.3294118 C153.244565,14.6117647 146.673913,10.5882353 137.559783,5.92941176 C131.836957,2.96470588 124.418478,-0.211764706 119.119565,0.635294118 C115.940217,1.27058824 112.336957,3.17647059 110.005435,5.92941176 C108.097826,6.14117647 106.402174,6.56470588 104.494565,6.98823529 C96.6521739,9.74117647 91.9891304,15.6705882 87.326087,21.6 C86.4782609,22.6588235 85.6304348,23.9294118 84.7826087,24.9882353 C84.5706522,25.2 83.9347826,26.0470588 83.0869565,27.3176471 C81.1793478,29.8588235 75.6684783,37.2705882 73.7608696,39.1764706 L50.2336957,34.5176471 C48.1141304,33.8823529 45.7826087,33.6705882 43.451087,33.6705882 C26.7065217,33.6705882 9.75,50.1882353 2.9673913,73.0588235 C-4.875,99.7411765 3.60326087,125.788235 21.8315217,131.082353 C23.951087,131.717647 26.2826087,132.141176 28.6141304,132.141176 C31.3695652,135.741176 37.0923913,137.858824 39.6358696,138.494118 C51.5054348,141.035294 63.798913,141.882353 75.6684783,142.729412 L81.1793478,143.152941 C88.8097826,143.788235 96.0163043,144 102.798913,144 C109.581522,144 116.152174,143.788235 122.51087,143.152941 C124.842391,142.941176 127.38587,142.729412 129.505435,141.670588 C131.625,140.611765 133.320652,139.129412 135.016304,137.858824 C137.771739,135.529412 140.315217,133.2 143.070652,130.870588 C153.244565,121.976471 163.630435,112.870588 173.380435,103.129412 C178.467391,97.8352941 183.978261,92.3294118 188.641304,85.9764706 C191.396739,82.1647059 195,77.0823529 195,71.5764706 C195,61.6235294 188.429348,52.5176471 183.130435,45.1058824 L183.130435,45.1058824 Z M86.4782609,29.8588235 C87.326087,28.8 87.9619565,27.9529412 87.9619565,27.7411765 L90.5054348,24.5647059 C91.1413043,25.2 92.201087,25.4117647 93.2608696,24.9882353 C94.3206522,24.3529412 94.7445652,23.0823529 94.3206522,21.8117647 C94.1086957,21.3882353 93.8967391,21.1764706 93.4728261,20.9647059 C96.4402174,17.1529412 99.6195652,13.9764706 103.646739,11.8588235 C104.282609,12.2823529 105.130435,12.2823529 105.766304,12.0705882 C106.402174,11.8588235 106.826087,11.2235294 106.826087,10.5882353 C108.521739,10.1647059 110.217391,9.95294118 111.913043,9.95294118 C116.152174,9.95294118 120.179348,11.4352941 122.722826,13.9764706 C123.994565,15.0352941 124.842391,16.5176471 125.690217,18.2117647 L125.690217,18.6352941 L125.902174,18.8470588 C127.173913,22.0235294 128.021739,25.8352941 128.021739,30.7058824 C128.021739,34.0941176 128.021739,37.4823529 128.233696,41.0823529 C127.809783,41.0823529 127.597826,41.0823529 127.173913,41.2941176 C126.11413,41.9294118 125.690217,43.2 126.11413,44.4705882 C126.538043,45.3176471 127.38587,45.7411765 128.233696,45.7411765 L128.233696,47.0117647 C128.233696,52.5176471 128.445652,58.0235294 128.445652,63.3176471 L128.445652,66.7058824 C128.021739,66.7058824 127.809783,66.7058824 127.38587,66.9176471 C126.326087,67.5529412 125.902174,68.8235294 126.326087,70.0941176 C126.75,70.9411765 127.597826,71.3647059 128.445652,71.3647059 L128.445652,73.4823529 C128.657609,79.8352941 128.657609,86.1882353 128.657609,92.5411765 C128.445652,92.5411765 128.021739,92.5411765 127.809783,92.7529412 C126.75,93.3882353 126.326087,94.6588235 126.75,95.9294118 C127.173913,96.5647059 127.809783,96.9882353 128.445652,97.2 C128.445652,98.6823529 128.233696,99.9529412 128.233696,101.435294 C128.021739,101.223529 128.021739,101.011765 127.809783,101.011765 C127.173913,100.376471 126.11413,100.376471 125.266304,100.8 C124.206522,101.435294 123.782609,102.705882 124.206522,103.976471 C124.418478,104.611765 125.054348,105.035294 125.478261,105.035294 C125.902174,105.035294 126.75,105.247059 127.173913,104.823529 C127.38587,104.611765 127.597826,104.611765 127.809783,104.4 C127.597826,108.211765 127.173913,112.023529 126.538043,115.835294 C126.326087,116.894118 125.902174,117.952941 125.478261,117.952941 L125.478261,120.070588 L125.478261,117.952941 C124.842391,117.952941 123.994565,117.529412 123.146739,116.894118 C123.146739,116.682353 122.934783,116.682353 122.934783,116.470588 C122.722826,116.258824 122.51087,116.258824 122.298913,116.047059 C121.23913,115.2 119.967391,113.929412 119.119565,112.658824 C118.483696,111.811765 118.059783,110.964706 117.423913,109.905882 C117.847826,109.694118 118.271739,109.270588 118.483696,108.635294 C118.483696,108.423529 118.695652,108 118.483696,107.788235 C118.483696,107.576471 118.483696,107.152941 118.271739,106.941176 C118.059783,106.305882 117.423913,105.882353 117,105.882353 C116.576087,105.670588 115.940217,105.670588 115.516304,105.882353 C115.092391,104.823529 114.668478,103.764706 114.032609,102.705882 C113.608696,101.647059 112.972826,100.376471 112.548913,99.3176471 C113.184783,98.6823529 113.396739,97.6235294 112.972826,96.5647059 L112.336957,95.9294118 C111.913043,95.5058824 111.277174,95.2941176 110.641304,95.5058824 C109.581522,93.1764706 108.521739,90.8470588 107.673913,88.5176471 C107.88587,87.8823529 108.097826,87.2470588 107.673913,86.4 C107.461957,85.7647059 106.826087,85.3411765 106.402174,85.3411765 C106.402174,85.1294118 106.190217,85.1294118 106.190217,84.9176471 C104.918478,81.9529412 103.646739,79.2 102.375,76.2352941 L101.103261,73.4823529 C97.5,64.1647059 93.2608696,54.6352941 86.9021739,47.2235294 L87.1141304,47.0117647 C87.1141304,46.8 87.326087,46.3764706 87.1141304,46.1647059 C86.9021739,45.9529412 87.1141304,45.5294118 86.9021739,45.3176471 C86.2663043,44.2588235 84.9945652,43.8352941 83.9347826,44.2588235 C82.2391304,42.7764706 80.1195652,41.7176471 78.2119565,40.8705882 C78.8478261,40.2352941 79.4836957,39.3882353 80.3315217,38.3294118 C80.5434783,38.3294118 80.5434783,38.3294118 80.7554348,38.1176471 C81.6032609,37.6941176 81.8152174,37.0588235 82.0271739,36.2117647 C83.0869565,34.3058824 84.5706522,32.4 86.4782609,29.8588235 Z M29.0380435,127.694118 C27.1304348,127.694118 25.0108696,127.482353 23.1032609,126.847059 C6.99456522,122.188235 -0.211956522,98.4705882 6.99456522,74.1176471 C13.3532609,53.1529412 28.6141304,37.9058824 43.451087,37.9058824 C44.298913,37.9058824 45.1467391,37.9058824 45.9945652,38.1176471 L48.9619565,38.7529412 L49.173913,38.7529412 C65.2826087,43.6235294 72.4891304,67.3411765 65.2826087,91.4823529 C59.1358696,112.447059 43.875,127.694118 29.0380435,127.694118 L29.0380435,127.694118 Z M185.038043,83.2235294 C180.586957,89.3647059 175.288043,94.8705882 170.201087,99.9529412 C160.663043,109.482353 150.277174,118.588235 140.103261,127.482353 C137.347826,129.811765 134.804348,132.141176 132.048913,134.470588 C130.777174,135.741176 129.293478,137.011765 127.597826,137.647059 C125.902174,138.282353 123.994565,138.494118 121.875,138.705882 C109.369565,139.764706 96.0163043,139.764706 81.1793478,138.705882 L75.6684783,138.282353 C64.0108696,137.435294 51.7173913,136.588235 40.0597826,134.047059 C38.576087,133.835294 35.8206522,132.776471 33.701087,131.294118 C48.5380435,128.329412 62.951087,112.870588 69.0978261,92.5411765 C75.2445652,71.7882353 71.4293478,51.4588235 60.8315217,40.8705882 L73.3369565,43.4117647 C74.1847826,43.6235294 78.8478261,45.5294118 81.3913043,47.8588235 C88.3858696,54.8470588 92.8369565,64.8 97.076087,74.5411765 L98.3478261,77.5058824 C99.6195652,80.4705882 100.891304,83.2235294 102.163043,86.1882353 C104.070652,90.8470588 106.190217,95.5058824 108.309783,100.164706 C108.945652,101.435294 109.369565,102.705882 110.005435,103.976471 C111.48913,107.576471 113.184783,111.388235 115.516304,114.564706 C115.728261,114.776471 120.603261,121.552941 125.478261,121.552941 L125.690217,121.552941 C127.173913,121.552941 129.929348,120.705882 130.777174,115.835294 C133.108696,101.647059 132.896739,87.0352941 132.684783,73.0588235 C132.684783,69.6705882 132.472826,66.4941176 132.472826,63.1058824 C132.472826,57.6 132.26087,52.0941176 132.26087,46.8 C132.26087,41.5058824 132.048913,36 132.048913,30.7058824 C132.048913,24.3529412 130.777174,19.0588235 128.445652,15.0352941 C137.771739,19.0588235 146.461957,24.3529412 153.668478,30.9176471 C167.445652,42.9882353 176.983696,57.6 177.195652,57.6 C177.619565,58.2352941 178.255435,58.6588235 178.891304,58.6588235 C179.315217,58.6588235 179.73913,58.4470588 179.951087,58.2352941 C181.01087,57.6 181.222826,56.3294118 180.586957,55.2705882 C180.586957,54.8470588 171.048913,40.2352941 156.847826,27.7411765 C146.461957,18.6352941 133.744565,11.6470588 119.755435,7.2 C118.695652,6.77647059 117.423913,6.35294118 116.152174,6.14117647 C117.423913,5.50588235 118.695652,4.87058824 119.755435,4.65882353 C124.206522,3.81176471 132.472826,8.04705882 135.440217,9.52941176 C144.342391,13.9764706 150.701087,18 157.695652,23.5058824 C164.902174,29.2235294 171.472826,36.2117647 176.983696,44.0470588 L177.407609,44.4705882 C178.043478,45.5294118 178.891304,46.3764706 179.527174,47.4352941 C184.826087,54.6352941 190.76087,62.8941176 190.76087,71.1529412 C190.76087,75.3882353 187.581522,79.6235294 185.038043,83.2235294 L185.038043,83.2235294 Z M125.478261,27.7411765 C125.690217,27.7411765 126.11413,27.7411765 126.326087,27.5294118 L126.961957,26.8941176 C127.173913,26.6823529 127.38587,26.4705882 127.38587,26.0470588 C127.597826,25.4117647 127.597826,24.7764706 127.173913,24.3529412 C126.961957,23.7176471 126.326087,23.2941176 125.902174,23.2941176 C125.266304,23.0823529 124.630435,23.0823529 124.206522,23.5058824 C123.570652,23.7176471 123.358696,24.3529412 123.146739,24.7764706 C122.934783,25.4117647 122.934783,26.0470588 123.358696,26.4705882 C123.782609,27.3176471 124.630435,27.7411765 125.478261,27.7411765 L125.478261,27.7411765 Z M120.179348,17.3647059 C120.391304,17.3647059 120.815217,17.3647059 121.027174,17.1529412 L121.663043,16.5176471 C122.298913,15.8823529 122.298913,14.8235294 121.875,13.9764706 C121.663043,13.3411765 121.027174,12.9176471 120.603261,12.9176471 C119.967391,12.7058824 119.331522,12.7058824 118.907609,13.1294118 C117.847826,13.7647059 117.423913,15.0352941 117.847826,16.3058824 C118.483696,17.1529412 119.331522,17.5764706 120.179348,17.3647059 Z" id="Shape"></path>
                <path d="M112.972826,30.7058824 C112.972826,30.9176471 112.972826,31.3411765 113.184783,31.5529412 C113.820652,32.6117647 115.092391,33.0352941 116.36413,32.6117647 L117,31.9764706 C117.423913,31.5529412 117.63587,30.9176471 117.423913,30.2823529 C117.423913,30.0705882 117.423913,29.6470588 117.211957,29.4352941 C117,28.8 116.36413,28.3764706 115.940217,28.3764706 C115.304348,28.1647059 114.668478,28.1647059 114.244565,28.5882353 C113.396739,29.0117647 112.972826,29.8588235 112.972826,30.7058824 Z" id="Shape"></path>
                <ellipse id="Oval" transform="translate(110.003103, 20.342753) rotate(62.794083) translate(-110.003103, -20.342753) " cx="110.003103" cy="20.3427529" rx="2.33055396" ry="2.32844486"></ellipse>
                <ellipse id="Oval" transform="translate(107.413630, 28.008847) rotate(62.794083) translate(-107.413630, -28.008847) " cx="107.41363" cy="28.0088471" rx="2.33055396" ry="2.32844486"></ellipse>
                <ellipse id="Oval" transform="translate(117.644984, 22.813624) rotate(62.794083) translate(-117.644984, -22.813624) " cx="117.644984" cy="22.8136235" rx="2.33055396" ry="2.32844486"></ellipse>
                <ellipse id="Oval" transform="translate(102.270717, 17.683624) rotate(62.794083) translate(-102.270717, -17.683624) " cx="102.270717" cy="17.6836235" rx="2.33055396" ry="2.32844486"></ellipse>
                <ellipse id="Oval" transform="translate(112.307283, 12.585176) rotate(62.794083) translate(-112.307283, -12.585176) " cx="112.307283" cy="12.5851765" rx="2.33055396" ry="2.32844486"></ellipse>
                <path d="M102.798913,36 C102.798913,36.2117647 102.798913,36.6352941 103.01087,36.8470588 L103.646739,37.4823529 C104.070652,37.9058824 104.706522,38.1176471 105.342391,38.1176471 C105.554348,38.1176471 105.978261,38.1176471 106.190217,37.9058824 C107.25,37.2705882 107.673913,36 107.25,34.7294118 L106.61413,34.0941176 C105.978261,33.4588235 104.918478,33.4588235 104.070652,33.8823529 C103.222826,34.0941176 102.798913,35.1529412 102.798913,36 L102.798913,36 Z" id="Shape"></path>
                <ellipse id="Oval" transform="translate(99.775989, 25.540094) rotate(62.794083) translate(-99.775989, -25.540094) " cx="99.7759891" cy="25.5400941" rx="2.33055396" ry="2.32844486"></ellipse>
                <path d="M124.630435,48.9176471 C123.782609,49.3411765 123.358696,50.1882353 123.358696,51.0352941 C123.358696,51.2470588 123.358696,51.6705882 123.570652,51.8823529 C124.206522,52.9411765 125.478261,53.3647059 126.75,52.9411765 C127.38587,52.7294118 127.597826,52.0941176 127.809783,51.6705882 C128.021739,51.0352941 128.021739,50.4 127.597826,49.9764706 C127.38587,49.3411765 126.75,48.9176471 126.326087,48.9176471 C125.902174,48.7058824 125.266304,48.7058824 124.630435,48.9176471 L124.630435,48.9176471 Z" id="Shape"></path>
                <ellipse id="Oval" transform="translate(120.552603, 40.918659) rotate(-117.205917) translate(-120.552603, -40.918659) " cx="120.552603" cy="40.9186588" rx="2.33055396" ry="2.32844486"></ellipse>
                <ellipse id="Oval" transform="translate(118.002978, 48.583906) rotate(-117.205917) translate(-118.002978, -48.583906) " cx="118.002978" cy="48.5839059" rx="2.33055396" ry="2.32844486"></ellipse>
                <ellipse id="Oval" transform="translate(112.814918, 38.360118) rotate(-117.205917) translate(-112.814918, -38.360118) " cx="112.814918" cy="38.3601176" rx="2.33055396" ry="2.32844486"></ellipse>
                <ellipse id="Oval" transform="translate(122.961913, 33.182682) rotate(152.794083) translate(-122.961913, -33.182682) " cx="122.961913" cy="33.1826824" rx="2.33055396" ry="2.32844486"></ellipse>
                <path d="M114.456522,54.2117647 C113.608696,54.6352941 113.184783,55.4823529 113.184783,56.3294118 C113.184783,56.5411765 113.184783,56.9647059 113.396739,57.1764706 C113.820652,58.0235294 114.668478,58.4470588 115.516304,58.4470588 C115.728261,58.4470588 116.152174,58.4470588 116.36413,58.2352941 L117,57.6 C117.63587,56.9647059 117.63587,55.9058824 117.211957,55.0588235 L116.576087,54.4235294 C116.36413,54.2117647 116.152174,54 115.728261,54 C115.728261,53.7882353 115.092391,54 114.456522,54.2117647 Z" id="Shape"></path>
                <ellipse id="Oval" transform="translate(123.418255, 58.692071) rotate(62.794083) translate(-123.418255, -58.692071) " cx="123.418255" cy="58.6920706" rx="2.33055396" ry="2.32844486"></ellipse>
                <path d="M121.875,68.4 C122.934783,67.7647059 123.358696,66.4941176 122.934783,65.2235294 C122.298913,64.1647059 121.027174,63.7411765 119.755435,64.1647059 C119.119565,64.3764706 118.907609,65.0117647 118.695652,65.4352941 C118.483696,66.0705882 118.483696,66.7058824 118.907609,67.1294118 C119.331522,67.9764706 120.179348,68.4 121.027174,68.4 C121.451087,68.8235294 121.663043,68.6117647 121.875,68.4 Z" id="Shape"></path>
                <ellipse id="Oval" transform="translate(89.739424, 30.638541) rotate(62.794083) translate(-89.739424, -30.638541) " cx="89.7394239" cy="30.6385412" rx="2.33055396" ry="2.32844486"></ellipse>
                <ellipse id="Oval" transform="translate(87.248935, 38.492894) rotate(62.794083) translate(-87.248935, -38.492894) " cx="87.2489348" cy="38.4928941" rx="2.33055396" ry="2.32844486"></ellipse>
                <ellipse id="Oval" transform="translate(97.471810, 33.295553) rotate(62.794083) translate(-97.471810, -33.295553) " cx="97.4718098" cy="33.2955529" rx="2.33055396" ry="2.32844486"></ellipse>
                <path d="M107.25,62.8941176 C107.673913,62.4705882 107.88587,61.8352941 107.673913,61.2 C107.673913,60.9882353 107.673913,60.5647059 107.461957,60.3529412 C106.826087,59.2941176 105.554348,58.8705882 104.282609,59.2941176 C103.222826,59.9294118 102.798913,61.2 103.222826,62.4705882 L103.858696,63.1058824 C104.282609,63.5294118 104.918478,63.7411765 105.554348,63.7411765 C105.766304,63.7411765 106.190217,63.7411765 106.402174,63.5294118 C106.826087,63.3176471 107.038043,63.1058824 107.25,62.8941176 L107.25,62.8941176 Z M109.369565,44.0470588 C108.309783,44.6823529 107.88587,45.9529412 108.309783,47.2235294 C108.945652,48.2823529 110.217391,48.7058824 111.48913,48.2823529 C112.548913,47.6470588 112.972826,46.3764706 112.548913,45.1058824 C112.336957,44.4705882 111.701087,44.0470588 111.277174,44.0470588 C110.429348,43.6235294 109.793478,43.6235294 109.369565,44.0470588 Z" id="Shape"></path>
                <ellipse id="Oval" transform="translate(100.217495, 51.221012) rotate(-27.205917) translate(-100.217495, -51.221012) " cx="100.217495" cy="51.2210118" rx="2.33055396" ry="2.32844486"></ellipse>
                <ellipse id="Oval" transform="translate(97.791440, 59.074941) rotate(-117.205917) translate(-97.791440, -59.074941) " cx="97.7914402" cy="59.0749412" rx="2.33055396" ry="2.32844486"></ellipse>
                <ellipse id="Oval" transform="translate(107.986125, 53.779976) rotate(-117.205917) translate(-107.986125, -53.779976) " cx="107.986125" cy="53.7799765" rx="2.33055396" ry="2.32844486"></ellipse>
                <ellipse id="Oval" transform="translate(92.516266, 48.731082) rotate(152.794083) translate(-92.516266, -48.731082) " cx="92.5162663" cy="48.7310824" rx="2.33055396" ry="2.32844486"></ellipse>
                <ellipse id="Oval" transform="translate(102.710527, 43.335741) rotate(62.794083) translate(-102.710527, -43.335741) " cx="102.710527" cy="43.3357412" rx="2.33055396" ry="2.32844486"></ellipse>
                <path d="M93.4728261,42.7764706 C93.8967391,43.2 94.5326087,43.4117647 95.1684783,43.4117647 C95.3804348,43.4117647 95.8043478,43.4117647 96.0163043,43.2 C96.6521739,42.9882353 96.8641304,42.3529412 97.076087,41.9294118 C97.2880435,41.2941176 97.2880435,40.6588235 96.8641304,40.2352941 L96.2282609,39.6 C95.5923913,38.9647059 94.5326087,38.9647059 93.6847826,39.3882353 C92.625,40.0235294 92.201087,41.2941176 92.625,42.5647059 C93.048913,42.3529412 93.2608696,42.5647059 93.4728261,42.7764706 L93.4728261,42.7764706 Z" id="Shape"></path>
                <ellipse id="Oval" transform="translate(110.743679, 71.521624) rotate(-27.205917) translate(-110.743679, -71.521624) " cx="110.743679" cy="71.5216235" rx="2.33055396" ry="2.32844486"></ellipse>
                <ellipse id="Oval" transform="translate(108.351750, 79.423624) rotate(-117.205917) translate(-108.351750, -79.423624) " cx="108.35175" cy="79.4236235" rx="2.33055396" ry="2.32844486"></ellipse>
                <ellipse id="Oval" transform="translate(118.360125, 74.225435) rotate(-117.205917) translate(-118.360125, -74.225435) " cx="118.360125" cy="74.2254353" rx="2.33055396" ry="2.32844486"></ellipse>
                <ellipse id="Oval" transform="translate(103.165810, 69.201953) rotate(-117.205917) translate(-103.165810, -69.201953) " cx="103.16581" cy="69.2019529" rx="2.33055396" ry="2.32844486"></ellipse>
                <ellipse id="Oval" transform="translate(113.174185, 64.001647) rotate(-117.205917) translate(-113.174185, -64.001647) " cx="113.174185" cy="64.0016471" rx="2.33055396" ry="2.32844486"></ellipse>
                <ellipse id="Oval" transform="translate(121.180418, 92.107271) rotate(-27.205917) translate(-121.180418, -92.107271) " cx="121.180418" cy="92.1072706" rx="2.33055396" ry="2.32844486"></ellipse>
                <ellipse id="Oval" transform="translate(118.721511, 99.866965) rotate(-117.205917) translate(-118.721511, -99.866965) " cx="118.721511" cy="99.8669647" rx="2.33055396" ry="2.32844486"></ellipse>
                <ellipse id="Oval" transform="translate(113.537690, 89.645294) rotate(-117.205917) translate(-113.537690, -89.645294) " cx="113.53769" cy="89.6452941" rx="2.33055396" ry="2.32844486"></ellipse>
                <ellipse id="Oval" transform="translate(123.734495, 84.350329) rotate(-117.205917) translate(-123.734495, -84.350329) " cx="123.734495" cy="84.3503294" rx="2.33055396" ry="2.32844486"></ellipse>
                <path d="M123.994565,76.0235294 C123.782609,76.6588235 123.782609,77.2941176 124.206522,77.7176471 L124.842391,78.3529412 C125.266304,78.7764706 125.902174,78.9882353 126.538043,78.9882353 C126.75,78.9882353 127.173913,78.9882353 127.38587,78.7764706 C128.021739,78.5647059 128.233696,77.9294118 128.445652,77.5058824 C128.657609,77.0823529 128.657609,76.2352941 128.233696,75.8117647 L127.597826,75.1764706 C126.961957,74.5411765 125.902174,74.5411765 125.054348,74.9647059 C124.418478,74.9647059 124.206522,75.3882353 123.994565,76.0235294 L123.994565,76.0235294 Z" id="Shape"></path>
                <ellipse id="Oval" transform="translate(115.917326, 81.958024) rotate(-27.205917) translate(-115.917326, -81.958024) " cx="115.917326" cy="81.9580235" rx="2.33055396" ry="2.32844486"></ellipse>
                <ellipse id="Oval" transform="translate(124.095880, 109.991859) rotate(-117.205917) translate(-124.095880, -109.991859) " cx="124.09588" cy="109.991859" rx="2.33055396" ry="2.32844486"></ellipse>
                <path d="M19.076087,120.705882 C18.4402174,120.705882 17.8043478,120.494118 17.3804348,119.858824 C8.26630435,109.058824 5.51086957,92.1176471 10.5978261,75.3882353 C15.4728261,58.6588235 27.5543478,45.5294118 41.1195652,41.7176471 C42.1793478,41.5058824 43.451087,42.1411765 43.6630435,43.2 C43.875,44.2588235 43.2391304,45.5294118 42.1793478,45.7411765 C29.8858696,49.1294118 19.076087,61.2 14.625,76.4470588 C10.173913,91.4823529 12.5054348,107.364706 20.7717391,116.894118 C21.6195652,117.741176 21.4076087,119.223529 20.5597826,119.858824 C19.923913,120.494118 19.5,120.705882 19.076087,120.705882 L19.076087,120.705882 Z M45.1467391,64.8 C44.5108696,64.5882353 43.875,64.5882353 43.451087,65.0117647 C42.6032609,65.4352941 42.1793478,66.2823529 42.1793478,67.1294118 C42.1793478,67.3411765 42.1793478,67.7647059 42.3913043,67.9764706 C43.0271739,69.0352941 44.298913,69.4588235 45.5706522,69.0352941 L46.2065217,68.4 C46.4184783,68.1882353 46.6304348,67.9764706 46.6304348,67.5529412 C46.8423913,66.9176471 46.8423913,66.2823529 46.4184783,65.8588235 C46.2065217,65.4352941 45.5706522,65.0117647 45.1467391,64.8 L45.1467391,64.8 Z" id="Shape"></path>
                <ellipse id="Oval" transform="translate(51.988696, 69.460941) rotate(-117.205917) translate(-51.988696, -69.460941) " cx="51.9886957" cy="69.4609412" rx="2.33055396" ry="2.32844486"></ellipse>
                <path d="M58.2880435,58.8705882 C54.6847826,55.0588235 49.5978261,52.9411765 44.7228261,52.9411765 C40.4836957,52.9411765 36.6684783,54.4235294 33.9130435,57.1764706 C31.7934783,59.2941176 30.3097826,62.0470588 29.8858696,65.0117647 C29.0380435,69.6705882 33.2771739,71.1529412 36.2445652,72.4235294 C38.1521739,73.2705882 40.2717391,73.9058824 41.7554348,75.3882353 C43.2391304,76.8705882 43.875,78.7764706 44.7228261,80.8941176 C45.7826087,83.8588235 47.2663043,87.2470588 51.0815217,87.2470588 L52.1413043,87.2470588 C55.3206522,86.8235294 58.076087,85.3411765 60.1956522,83.2235294 C66.1304348,76.8705882 65.4945652,66.0705882 58.2880435,58.8705882 L58.2880435,58.8705882 Z M58.7119565,77.9294118 C58.076087,77.5058824 57.2282609,77.2941176 56.3804348,77.7176471 C55.3206522,78.3529412 54.8967391,79.6235294 55.3206522,80.8941176 C55.3206522,81.1058824 55.5326087,81.3176471 55.7445652,81.3176471 C54.4728261,82.3764706 52.7771739,83.0117647 51.0815217,83.2235294 C50.0217391,83.4352941 49.5978261,82.5882353 48.5380435,79.4117647 C48.5380435,79.2 48.326087,79.2 48.326087,78.9882353 C48.9619565,79.4117647 50.0217391,79.6235294 50.6576087,79.2 C51.5054348,78.7764706 51.9293478,77.9294118 51.9293478,77.0823529 C51.9293478,76.8705882 51.9293478,76.4470588 51.7173913,76.2352941 L51.0815217,75.6 C50.4456522,74.9647059 49.3858696,74.9647059 48.5380435,75.3882353 C47.9021739,75.8117647 47.4782609,76.4470588 47.2663043,77.0823529 C46.6304348,75.6 45.7826087,74.1176471 44.5108696,72.6352941 C42.3913043,70.5176471 39.8478261,69.6705882 37.7282609,68.6117647 C34.3369565,67.3411765 33.9130435,66.7058824 33.9130435,65.8588235 C34.125,65.2235294 34.125,64.5882353 34.3369565,64.1647059 C34.3369565,64.5882353 34.3369565,65.0117647 34.548913,65.6470588 C35.1847826,66.7058824 36.4565217,67.1294118 37.7282609,66.7058824 C38.7880435,66.0705882 39.2119565,64.8 38.7880435,63.5294118 C38.1521739,62.4705882 36.8804348,62.0470588 35.6086957,62.4705882 L34.9728261,63.1058824 C35.3967391,62.0470588 36.0326087,61.2 36.8804348,60.3529412 C37.3043478,59.9294118 37.9402174,59.5058824 38.576087,59.0823529 C38.7880435,59.0823529 39,59.2941176 39.423913,59.0823529 C39.6358696,59.0823529 40.0597826,59.0823529 40.2717391,58.8705882 L40.9076087,58.2352941 C41.1195652,58.0235294 41.1195652,58.0235294 41.1195652,57.8117647 C42.1793478,57.3882353 43.451087,57.1764706 44.7228261,57.1764706 L45.7826087,57.1764706 C44.7228261,57.8117647 44.298913,59.0823529 44.9347826,60.1411765 C45.5706522,61.2 46.8423913,61.6235294 48.1141304,61.2 C49.173913,60.5647059 49.5978261,59.2941176 49.173913,58.0235294 C49.173913,57.8117647 48.9619565,57.6 48.75,57.6 C50.4456522,58.0235294 51.9293478,58.8705882 53.4130435,59.9294118 C52.7771739,60.3529412 52.3532609,61.2 52.5652174,61.8352941 C52.5652174,62.0470588 52.5652174,62.4705882 52.7771739,62.6823529 C53.4130435,63.7411765 54.6847826,64.1647059 55.9565217,63.7411765 C56.3804348,63.5294118 56.5923913,63.3176471 56.8043478,62.8941176 C58.5,65.0117647 59.5597826,67.3411765 59.9836957,69.6705882 C59.5597826,69.6705882 59.3478261,69.6705882 58.923913,69.8823529 C57.8641304,70.5176471 57.4402174,71.7882353 57.8641304,73.0588235 C58.2880435,73.9058824 59.1358696,74.3294118 59.9836957,74.3294118 C59.5597826,75.6 59.3478261,76.6588235 58.7119565,77.9294118 L58.7119565,77.9294118 Z M29.4619565,107.152941 C28.826087,107.152941 28.1902174,107.152941 27.3423913,106.941176 C25.2228261,106.517647 22.8913043,105.458824 20.7717391,103.976471 C19.923913,103.341176 19.7119565,101.858824 20.3478261,101.011765 C20.9836957,100.164706 22.4673913,99.9529412 23.3152174,100.588235 C24.798913,101.858824 26.4945652,102.494118 27.9782609,102.917647 C29.673913,103.129412 31.1576087,102.917647 32.4293478,102.070588 C35.6086957,99.9529412 37.5163043,93.8117647 37.7282609,89.1529412 C37.9402174,85.9764706 36.6684783,83.4352941 33.9130435,80.8941176 C33.0652174,80.0470588 33.0652174,78.7764706 33.9130435,77.9294118 C34.7608696,77.0823529 36.0326087,77.0823529 36.8804348,77.9294118 C40.4836957,81.3176471 42.1793478,85.1294118 41.9673913,89.5764706 C41.7554348,93.8117647 40.0597826,102.494118 34.7608696,105.882353 C33.4891304,106.729412 31.5815217,107.152941 29.4619565,107.152941 L29.4619565,107.152941 Z" id="Shape"></path>
                <path d="M30.0978261,97.2 C29.4619565,97.2 28.826087,97.2 24.798913,93.8117647 C23.951087,92.9647059 23.7391304,91.6941176 24.5869565,90.8470588 C25.4347826,90 26.7065217,89.7882353 27.5543478,90.6352941 C29.8858696,92.5411765 30.7336957,92.9647059 30.9456522,93.1764706 C31.7934783,93.3882353 32.4293478,94.2352941 32.4293478,95.2941176 C32.2173913,96.1411765 31.3695652,97.2 30.0978261,97.2 Z" id="Shape"></path>
            </g>
        </g>
    </g>
</svg>