<?xml version="1.0" encoding="UTF-8"?>
<svg width="200px" height="200px" viewBox="0 0 200 200" version="1.1" xmlns="http://www.w3.org/2000/svg" xmlns:xlink="http://www.w3.org/1999/xlink">
    <!-- Generator: Sketch 42 (36781) - http://www.bohemiancoding.com/sketch -->
    <title>bible</title>
    <desc>Created with Sketch.</desc>
    <defs></defs>
    <g id="Page-1" stroke="none" stroke-width="1" fill="none" fill-rule="evenodd">
        <g id="bible">
            <g id="noun_1042226_cc" transform="translate(37.000000, 5.000000)">
                <g id="Group">
                    <path d="M46.6936667,79.872 L59.28995,79.872 C60.50915,79.872 61.4976333,80.8573187 61.4976333,82.0726154 L61.4976333,124.555253 L65.5066,124.555253 L65.5066,82.0726154 C65.5066,80.8573187 66.4950833,79.872 67.7142833,79.872 L80.3105667,79.872 L80.3105667,75.8758681 L67.7121667,75.8758681 C66.4929667,75.8758681 65.5044833,74.8905495 65.5044833,73.6752527 L65.5044833,55.2327033 L61.4955167,55.2327033 L61.4955167,73.6752527 C61.4955167,74.8905495 60.5070333,75.8758681 59.2878333,75.8758681 L46.6936667,75.8758681 L46.6936667,79.872 Z" id="Shape"></path>
                    <path d="M21.2386333,183.729231 L29.8809833,178.36589 C30.2387,178.144352 30.6429833,178.032527 31.0472667,178.032527 C31.45155,178.032527 31.8558333,178.142242 32.21355,178.36589 L40.8559,183.729231 L40.8559,160.068923 L21.2386333,160.068923 L21.2386333,183.729231 Z" id="Shape"></path>
                    <path d="M4.48521667,155.669802 L8.73336667,155.669802 L8.73336667,42.3729231 C8.73336667,41.1576264 9.72185,40.1723077 10.94105,40.1723077 C12.16025,40.1723077 13.1487333,41.1576264 13.1487333,42.3729231 L13.1487333,155.669802 L19.0330667,155.669802 L43.0635833,155.669802 L122.514783,155.669802 L122.514783,4.39912088 L4.48521667,4.39912088 L4.48521667,155.669802 Z M97.16135,43.3877802 C97.49155,44.5587692 96.8078667,45.771956 95.6352333,46.1010989 L78.4436667,50.9285275 C78.2447,50.9854945 78.0415,51.0108132 77.84465,51.0108132 C76.8815667,51.0108132 75.9968,50.3778462 75.7216333,49.4072967 C75.3914333,48.2363077 76.0751167,47.0231209 77.24775,46.693978 L94.4393167,41.8665495 C95.61195,41.5352967 96.83115,42.2189011 97.16135,43.3877802 Z M79.3284333,30.1693187 L81.5467,27.3441758 C82.2981167,26.3883956 83.6845333,26.2217143 84.6455,26.9686154 C85.60435,27.7176264 85.7736833,29.0996044 85.0222667,30.0574945 L82.804,32.8826374 C82.3679667,33.4375385 81.7202667,33.7265934 81.0641,33.7265934 C80.58785,33.7265934 80.1094833,33.5725714 79.7052,33.2581978 C78.74635,32.5070769 78.5770167,31.1250989 79.3284333,30.1693187 Z M70.0278,42.010022 L75.2750167,35.3301099 C76.0264333,34.3722198 77.4149667,34.2055385 78.3738167,34.9545495 C79.3326667,35.7035604 79.502,37.0855385 78.7505833,38.0434286 L73.5033667,44.7233407 C73.0673333,45.2782418 72.4196333,45.5672967 71.7634667,45.5672967 C71.2872167,45.5672967 70.80885,45.4132747 70.4045667,45.0989011 C69.4457167,44.3477802 69.2763833,42.9658022 70.0278,42.010022 Z M61.2923167,16.666022 C61.2923167,15.4507253 62.2808,14.4654066 63.5,14.4654066 C64.7192,14.4654066 65.7076833,15.4507253 65.7076833,16.666022 L65.7076833,25.8989011 C65.7076833,27.1141978 64.7192,28.0995165 63.5,28.0995165 C62.2808,28.0995165 61.2923167,27.1141978 61.2923167,25.8989011 L61.2923167,16.666022 Z M61.2923167,32.8404396 C61.2923167,31.6251429 62.2808,30.6398242 63.5,30.6398242 C64.7192,30.6398242 65.7076833,31.6251429 65.7076833,32.8404396 L65.7076833,42.7843516 C65.7076833,43.9996484 64.7192,44.984967 63.5,44.984967 C62.2808,44.984967 61.2923167,43.9996484 61.2923167,42.7843516 L61.2923167,32.8404396 Z M59.28995,50.8335824 L67.7121667,50.8335824 C68.9313667,50.8335824 69.91985,51.8189011 69.91985,53.0341978 L69.91985,71.4767473 L82.5161333,71.4767473 C83.7353333,71.4767473 84.7238167,72.4620659 84.7238167,73.6773626 L84.7238167,82.0726154 C84.7238167,83.2879121 83.7353333,84.2732308 82.5161333,84.2732308 L69.91985,84.2732308 L69.91985,126.755868 C69.91985,127.971165 68.9313667,128.956484 67.7121667,128.956484 L59.28995,128.956484 C58.07075,128.956484 57.0822667,127.971165 57.0822667,126.755868 L57.0822667,84.2711209 L44.4859833,84.2711209 C43.2667833,84.2711209 42.2783,83.2858022 42.2783,82.0705055 L42.2783,73.6752527 C42.2783,72.459956 43.2667833,71.4746374 44.4859833,71.4746374 L57.0822667,71.4746374 L57.0822667,53.0320879 C57.0822667,51.8189011 58.07075,50.8335824 59.28995,50.8335824 Z M45.8067833,47.8945055 C46.1369833,46.7235165 47.3625333,46.0462418 48.5288167,46.3711648 L50.6624167,46.9703736 C51.8371667,47.2995165 52.5187333,48.5148132 52.1885333,49.6836923 C51.9154833,50.6542418 51.0286,51.2872088 50.0655167,51.2872088 C49.86655,51.2872088 49.6654667,51.2618901 49.4665,51.2049231 L47.3329,50.6057143 C46.1602667,50.2786813 45.4765833,49.0633846 45.8067833,47.8945055 Z M42.2825333,26.9686154 C43.2413833,26.2217143 44.6299167,26.3862857 45.3813333,27.3441758 L56.9002333,42.010022 C57.65165,42.9658022 57.4823167,44.3498901 56.5234667,45.0989011 C56.1191833,45.4132747 55.6408167,45.5672967 55.1645667,45.5672967 C54.5084,45.5672967 53.8607,45.2782418 53.4246667,44.7233407 L41.9057667,30.0596044 C41.15435,29.0996044 41.3236833,27.7176264 42.2825333,26.9686154 Z M29.7688,43.3877802 C30.099,42.2189011 31.3224333,41.5352967 32.4908333,41.8686593 L42.1047333,44.5693187 C43.2773667,44.8984615 43.96105,46.1137582 43.63085,47.2826374 C43.3556833,48.2531868 42.4709167,48.8861538 41.5078333,48.8861538 C41.3088667,48.8861538 41.1077833,48.8608352 40.9088167,48.8038681 L31.2949167,46.1032088 C30.1201667,45.7740659 29.4364833,44.5587692 29.7688,43.3877802 Z M8.73336667,9.96923077 C8.73336667,8.75393407 9.72185,7.76861538 10.94105,7.76861538 C12.16025,7.76861538 13.1487333,8.75393407 13.1487333,9.96923077 L13.1487333,33.2075604 C13.1487333,34.4228571 12.16025,35.4081758 10.94105,35.4081758 C9.72185,35.4081758 8.73336667,34.4228571 8.73336667,33.2075604 L8.73336667,9.96923077 Z" id="Shape"></path>
                    <path d="M124.722467,0 L2.27753333,0 C1.05833333,0 0.06985,0.985318681 0.06985,2.20061538 L0.06985,157.870418 C0.06985,159.085714 1.05833333,160.071033 2.27753333,160.071033 L16.8232667,160.071033 L16.8232667,187.691604 C16.8232667,188.491253 17.2571833,189.227604 17.9578,189.615824 C18.6605333,190.004044 19.5156667,189.982945 20.1951167,189.560967 L31.04515,182.830418 L41.8951833,189.560967 C42.2529,189.778286 42.6571833,189.89011 43.0635833,189.89011 C43.4318833,189.89011 43.8023,189.799385 44.1346167,189.613714 C44.8352333,189.225495 45.26915,188.489143 45.26915,187.689495 L45.26915,160.068923 L124.72035,160.068923 C125.93955,160.068923 126.928033,159.083604 126.928033,157.868308 L126.928033,2.20061538 C126.928033,0.985318681 125.941667,0 124.722467,0 Z M40.8559,183.729231 L32.21355,178.36589 C31.8558333,178.144352 31.45155,178.032527 31.0472667,178.032527 C30.6429833,178.032527 30.2387,178.142242 29.8809833,178.36589 L21.2386333,183.729231 L21.2386333,160.068923 L40.8559,160.068923 L40.8559,183.729231 Z M122.514783,155.669802 L43.0635833,155.669802 L19.03095,155.669802 L13.1466167,155.669802 L13.1466167,42.3729231 C13.1466167,41.1576264 12.1581333,40.1723077 10.9389333,40.1723077 C9.71973333,40.1723077 8.73125,41.1576264 8.73125,42.3729231 L8.73125,155.669802 L4.4831,155.669802 L4.4831,4.39912088 L122.512667,4.39912088 L122.512667,155.669802 L122.514783,155.669802 Z" id="Shape" fill="#000000" fill-rule="nonzero"></path>
                    <path d="M10.9389333,35.4060659 C12.1581333,35.4060659 13.1466167,34.4207473 13.1466167,33.2054505 L13.1466167,9.96923077 C13.1466167,8.75393407 12.1581333,7.76861538 10.9389333,7.76861538 C9.71973333,7.76861538 8.73125,8.75393407 8.73125,9.96923077 L8.73125,33.2075604 C8.73336667,34.4207473 9.71973333,35.4060659 10.9389333,35.4060659 Z" id="Shape" fill="#000000" fill-rule="nonzero"></path>
                    <path d="M75.7195167,49.4115165 C75.9946833,50.3820659 76.87945,51.015033 77.8425333,51.015033 C78.0415,51.015033 78.2425833,50.9897143 78.44155,50.9327473 L95.6331167,46.1053187 C96.80575,45.7761758 97.4894333,44.5608791 97.1592333,43.392 C96.8290333,42.2231209 95.6098333,41.5395165 94.4372,41.8728791 L77.2456333,46.7003077 C76.073,47.0273407 75.3893167,48.2405275 75.7195167,49.4115165 Z" id="Shape" fill="#000000" fill-rule="nonzero"></path>
                    <path d="M63.4978833,28.0995165 C64.7170833,28.0995165 65.7055667,27.1141978 65.7055667,25.8989011 L65.7055667,16.666022 C65.7055667,15.4507253 64.7170833,14.4654066 63.4978833,14.4654066 C62.2786833,14.4654066 61.2902,15.4507253 61.2902,16.666022 L61.2902,25.8989011 C61.2923167,27.1163077 62.2786833,28.0995165 63.4978833,28.0995165 Z" id="Shape" fill="#000000" fill-rule="nonzero"></path>
                    <path d="M63.4978833,44.984967 C64.7170833,44.984967 65.7055667,43.9996484 65.7055667,42.7843516 L65.7055667,32.8404396 C65.7055667,31.6251429 64.7170833,30.6398242 63.4978833,30.6398242 C62.2786833,30.6398242 61.2902,31.6251429 61.2902,32.8404396 L61.2902,42.7843516 C61.2923167,43.9996484 62.2786833,44.984967 63.4978833,44.984967 Z" id="Shape" fill="#000000" fill-rule="nonzero"></path>
                    <path d="M81.0641,33.7244835 C81.7202667,33.7244835 82.3679667,33.4354286 82.804,32.8805275 L85.0222667,30.0553846 C85.7736833,29.0996044 85.60435,27.7155165 84.6455,26.9665055 C83.68665,26.2196044 82.2981167,26.3841758 81.5467,27.3420659 L79.3284333,30.1672088 C78.5770167,31.122989 78.7442333,32.5070769 79.7052,33.2560879 C80.1094833,33.5725714 80.58785,33.7244835 81.0641,33.7244835 Z" id="Shape" fill="#000000" fill-rule="nonzero"></path>
                    <path d="M71.7634667,45.5651868 C72.4196333,45.5651868 73.0673333,45.2761319 73.5033667,44.7212308 L78.7505833,38.0413187 C79.502,37.0855385 79.3326667,35.7014505 78.3738167,34.9524396 C77.4149667,34.2034286 76.0264333,34.3701099 75.2750167,35.328 L70.0278,42.0079121 C69.2763833,42.9636923 69.4457167,44.3477802 70.4045667,45.0967912 C70.80885,45.4111648 71.2872167,45.5651868 71.7634667,45.5651868 Z" id="Shape" fill="#000000" fill-rule="nonzero"></path>
                    <path d="M31.2928,46.1032088 L40.9067,48.8038681 C41.1077833,48.8608352 41.3088667,48.8861538 41.5057167,48.8861538 C42.4688,48.8861538 43.3535667,48.2531868 43.6287333,47.2826374 C43.9589333,46.1116484 43.27525,44.8984615 42.1026167,44.5693187 L32.4887167,41.8686593 C31.3203167,41.5352967 30.0968833,42.2189011 29.7666833,43.3877802 C29.4364833,44.5587692 30.1201667,45.7740659 31.2928,46.1032088 Z" id="Shape" fill="#000000" fill-rule="nonzero"></path>
                    <path d="M49.4686167,51.207033 C49.6675833,51.2618901 49.8686667,51.2893187 50.0676333,51.2893187 C51.0307167,51.2893187 51.9176,50.6563516 52.19065,49.6858022 C52.52085,48.5169231 51.8371667,47.3016264 50.6645333,46.9724835 L48.5309333,46.3732747 C47.36465,46.0462418 46.1391,46.7256264 45.8089,47.8966154 C45.4787,49.0654945 46.1623833,50.2807912 47.3350167,50.6099341 L49.4686167,51.207033 Z" id="Shape" fill="#000000" fill-rule="nonzero"></path>
                    <path d="M53.4246667,44.7212308 C53.8607,45.2761319 54.5084,45.5651868 55.1645667,45.5651868 C55.6408167,45.5651868 56.1191833,45.4111648 56.5234667,45.0967912 C57.4823167,44.3477802 57.65165,42.9658022 56.9002333,42.0079121 L45.3813333,27.3441758 C44.6299167,26.3883956 43.2413833,26.2217143 42.2825333,26.9686154 C41.3236833,27.7176264 41.15435,29.0996044 41.9057667,30.0574945 L53.4246667,44.7212308 Z" id="Shape" fill="#000000" fill-rule="nonzero"></path>
                    <path d="M57.0822667,71.4767473 L44.4859833,71.4767473 C43.2667833,71.4767473 42.2783,72.4620659 42.2783,73.6773626 L42.2783,82.0726154 C42.2783,83.2879121 43.2667833,84.2732308 44.4859833,84.2732308 L57.0822667,84.2732308 L57.0822667,126.755868 C57.0822667,127.971165 58.07075,128.956484 59.28995,128.956484 L67.7121667,128.956484 C68.9313667,128.956484 69.91985,127.971165 69.91985,126.755868 L69.91985,84.2711209 L82.5161333,84.2711209 C83.7353333,84.2711209 84.7238167,83.2858022 84.7238167,82.0705055 L84.7238167,73.6752527 C84.7238167,72.459956 83.7353333,71.4746374 82.5161333,71.4746374 L69.91985,71.4746374 L69.91985,53.0320879 C69.91985,51.8167912 68.9313667,50.8314725 67.7121667,50.8314725 L59.28995,50.8314725 C58.07075,50.8314725 57.0822667,51.8167912 57.0822667,53.0320879 L57.0822667,71.4767473 Z M59.28995,75.8758681 C60.50915,75.8758681 61.4976333,74.8905495 61.4976333,73.6752527 L61.4976333,55.2327033 L65.5066,55.2327033 L65.5066,73.6752527 C65.5066,74.8905495 66.4950833,75.8758681 67.7142833,75.8758681 L80.3105667,75.8758681 L80.3105667,79.872 L67.7121667,79.872 C66.4929667,79.872 65.5044833,80.8573187 65.5044833,82.0726154 L65.5044833,124.555253 L61.4955167,124.555253 L61.4955167,82.0726154 C61.4955167,80.8573187 60.5070333,79.872 59.2878333,79.872 L46.6936667,79.872 L46.6936667,75.8758681 L59.28995,75.8758681 Z" id="Shape" fill="#000000" fill-rule="nonzero"></path>
                </g>
            </g>
        </g>
    </g>
</svg>