<?xml version="1.0" encoding="UTF-8"?>
<svg width="200px" height="200px" viewBox="0 0 200 200" version="1.1" xmlns="http://www.w3.org/2000/svg" xmlns:xlink="http://www.w3.org/1999/xlink">
    <!-- Generator: Sketch 42 (36781) - http://www.bohemiancoding.com/sketch -->
    <title>bike</title>
    <desc>Created with Sketch.</desc>
    <defs></defs>
    <g id="Page-1" stroke="none" stroke-width="1" fill="none" fill-rule="evenodd">
        <g id="bike" fill-rule="nonzero" fill="#000000">
            <g id="noun_436210_cc" transform="translate(3.000000, 40.000000)">
                <path d="M163.161951,20.1144 L165.11478,26.064 L169.22122,24.708 L164.177805,9.3264 C163.996146,8.7768 163.606537,8.3208 163.090244,8.0616 C162.573951,7.8048 161.974,7.7616 161.429024,7.9512 L88.9400976,32.6952 C88.1298049,32.9712 87.5943902,33.6864 87.4963902,34.488 L48.2007805,69.7272 C47.7275122,69.5184 47.206439,69.4032 46.6566829,69.4032 C44.5150244,69.4032 42.7797073,71.1456 42.7797073,73.2936 C42.7797073,75.4416 44.5150244,77.184 46.6566829,77.184 C48.0143415,77.184 49.2094634,76.4784 49.9002439,75.4152 L94.2392683,81.9216 C94.1819024,82.3848 94.138878,82.8576 94.138878,83.3352 C94.138878,89.5224 99.1512195,94.5576 105.310878,94.5576 C111.470537,94.5576 116.482878,89.5224 116.482878,83.3352 C116.482878,80.7576 115.603268,78.384 114.140439,76.4856 L163.161951,20.1144 Z M110.884927,73.6248 C109.242829,72.672 107.342585,72.1152 105.310878,72.1152 C104.863902,72.1152 104.424098,72.1512 103.991463,72.1992 L94.2631707,42.0528 L143.440049,36.1896 L110.884927,73.6248 Z M108.695463,76.1448 L106.195268,79.0176 L105.021659,75.3864 C105.119659,75.3816 105.215268,75.372 105.313268,75.372 C106.522732,75.372 107.667659,75.6528 108.695463,76.1448 Z M101.880878,79.7496 L98.5130244,79.2552 C99.1177561,78.2448 99.930439,77.376 100.903268,76.7208 L101.880878,79.7496 Z M160.752585,12.7656 L161.591561,15.3216 L147.687512,31.3104 L92.9079024,37.8408 L92.3509756,36.1152 L160.752585,12.7656 Z M50.3687317,72.1896 C50.3663415,72.1776 50.3639512,72.1656 50.3591707,72.1512 L88.4166341,38.0232 L99.8778537,73.5384 C97.7863902,74.7144 96.108439,76.5432 95.1212683,78.756 L50.3687317,72.1896 Z M105.313268,91.296 C100.941512,91.296 97.3848293,87.7224 97.3848293,83.3328 C97.3848293,83.0112 97.4087317,82.6992 97.4445854,82.3872 L102.997122,83.2032 L103.255268,84.0024 C103.496683,84.7464 104.115756,85.3032 104.878244,85.4592 C105.021659,85.4904 105.167463,85.5048 105.313268,85.5048 C105.929951,85.5048 106.527512,85.2408 106.943415,84.7584 L111.955756,78.996 C112.766049,80.2464 113.244098,81.7344 113.244098,83.3328 C113.241707,87.7224 109.685024,91.296 105.313268,91.296 Z" id="Shape"></path>
                <rect id="Rectangle-path" transform="translate(84.465735, 16.640282) rotate(163.960951) translate(-84.465735, -16.640282) " x="82.8439102" y="0.832248007" width="3.24365001" height="31.6160678"></rect>
                <path d="M167.062829,31.104 L187.590244,72.024 C187.530488,72.2592 187.487463,72.4944 187.487463,72.7464 C187.487463,74.3472 188.780585,75.6432 190.370098,75.6432 C191.96439,75.6432 193.255122,74.3472 193.255122,72.7464 C193.255122,71.5704 192.55,70.5624 191.548488,70.1088 L172.589073,28.4424 C172.574732,28.4088 172.55561,28.368 172.538878,28.3368 C171.77639,26.8176 169.933512,26.2056 168.422878,26.9712 C166.912244,27.7368 166.302732,29.5872 167.062829,31.104 Z" id="Shape"></path>
                <path d="M46.6566829,112.464 C25.1420976,112.464 7.64073171,94.8912 7.64073171,73.2912 C7.64073171,51.6912 25.1420976,34.116 46.6566829,34.116 C57.0685854,34.116 66.5339512,38.2416 73.5373659,44.9376 L78.791122,40.2264 C70.4874146,32.088 59.1480976,27.0576 46.6566829,27.0576 C21.2675122,27.0576 0.61102439,47.796 0.61102439,73.2888 C0.61102439,98.7816 21.2675122,119.5224 46.6566829,119.5224 C68.6947317,119.5224 87.1569756,103.8888 91.6482439,83.0904 L84.671122,82.0656 C80.6889756,99.4536 65.1619512,112.464 46.6566829,112.464 Z" id="Shape"></path>
                <path d="M77.7441951,49.6584 C82.7135122,56.232 85.6702439,64.4184 85.6702439,73.2912 C85.6702439,74.136 85.632,74.9688 85.5794146,75.8016 L92.5493659,76.824 C92.6378049,75.6576 92.697561,74.4792 92.697561,73.2912 C92.697561,62.6184 89.0667805,52.7856 82.9931707,44.952 L77.7441951,49.6584 Z" id="Shape"></path>
            </g>
        </g>
    </g>
</svg>