<?xml version="1.0" encoding="UTF-8"?>
<svg width="200px" height="200px" viewBox="0 0 200 200" version="1.1" xmlns="http://www.w3.org/2000/svg" xmlns:xlink="http://www.w3.org/1999/xlink">
    <!-- Generator: Sketch 42 (36781) - http://www.bohemiancoding.com/sketch -->
    <title>capybara</title>
    <desc>Created with Sketch.</desc>
    <defs></defs>
    <g id="Page-1" stroke="none" stroke-width="1" fill="none" fill-rule="evenodd">
        <g id="capybara" fill-rule="nonzero" fill="#000000">
            <g id="noun_599956_cc" transform="translate(3.000000, 38.000000)">
                <g id="Group">
                    <path d="M17.995614,101.377578 C15.436226,98.1452604 13.093964,95.1863281 11.927266,93.7672656 C10.59045,92.1409375 9.76144,90.0644531 12.723256,85.9102604 C15.431156,82.1146354 14.103232,72.3935156 13.632242,69.5045312 C13.581464,69.1929948 13.474812,68.8929167 13.317408,68.6207813 C13.220922,68.4542188 3.745144,51.8678906 5.81828,41.489375 C7.798752,31.5724219 21.144058,15.179401 41.055378,10.1948698 C59.02559,5.6884375 80.361346,10.789974 86.529976,12.4773177 C86.85118,12.5650521 87.44658,12.7519792 88.257806,13.005026 C94.00625,14.8004688 109.273632,19.5688542 117.436722,18.2807552 C123.12677,17.3804948 131.119742,14.4749479 136.951958,12.3539844 C138.304322,11.8628385 139.762532,11.3329167 140.851958,10.9606771 C140.874006,11.6683073 140.942256,12.3760938 141.100778,13.0711458 C141.375,14.2791406 142.446486,15.0980208 143.632216,15.0967448 C143.82264,15.0967448 144.01816,15.0764063 144.213654,15.031901 C145.612688,14.7114583 146.488654,13.3152865 146.168724,11.9140104 C145.561884,9.24117188 147.105634,5.36291667 147.750564,4.09388021 C148.405634,2.81596354 147.902898,1.249375 146.6283,0.590729167 C145.351154,-0.065390625 143.782002,0.435598958 143.126932,1.71351563 C142.975066,2.00820313 142.287288,3.42075521 141.702678,5.32333333 C140.737194,5.45731771 139.160294,6.01013021 135.179668,7.45846354 C129.860328,9.39252604 121.824196,12.3133073 116.624196,13.1360156 C109.682404,14.2384635 94.719716,9.56671875 89.804078,8.03195313 C88.910328,7.75348958 88.25271,7.54875 87.838842,7.43559896 C81.421366,5.67955729 58.992544,0.332630208 39.793442,5.14169271 C18.973136,10.3551042 3.300778,27.5377865 0.71981,40.4670573 C-1.557738,51.8691927 6.960824,67.9010938 8.571862,70.7964323 C9.298042,75.5546354 9.44658,81.544974 8.491886,82.8826562 C4.716296,88.1774479 4.52205,92.9534635 7.91297,97.0784115 C9.068254,98.4834896 11.387688,101.413177 13.9204,104.613698 C22.562098,115.528828 23.972546,117.217448 24.6454,117.723542 C25.130352,118.08849 25.716886,118.269036 26.295802,118.269036 C27.086722,118.269036 27.866202,117.932083 28.363868,117.267031 C29.224598,116.116276 29.07099,114.550964 27.922076,113.687578 C27.10448,112.885234 21.622666,105.960286 17.995614,101.377578 Z" id="Shape"></path>
                    <path d="M105.00802,74.5310156 C105.77229,73.3153906 105.411722,71.708151 104.198068,70.9401042 C102.984388,70.1708073 101.382242,70.5344792 100.612902,71.746276 C100.212996,72.3803125 97.311812,77.1364323 96.385848,81.8482292 C96.15749,81.8270833 95.930718,81.7911719 95.694742,81.8335938 C77.860042,85.0853125 59.03196,81.2671094 52.620828,79.7264583 C56.01128,72.7997656 55.875898,66.2580208 55.867032,65.9428385 C55.825146,64.5059635 54.615262,63.3679167 53.1934,63.414974 C51.758824,63.455651 50.627668,64.6547396 50.66958,66.0928906 C50.670854,66.1640885 50.825736,73.3916667 46.508046,79.9809375 C44.460286,83.1051823 40.48031,84.3665625 36.629814,85.5872656 C32.667596,86.8422917 28.572102,88.141849 26.670332,91.6551823 C23.118186,98.2240885 33.46486,111.290703 36.721204,115.13974 C37.371204,115.910313 38.414766,116.232005 39.388492,115.968802 C41.718092,115.329193 43.68585,115.463984 45.232148,116.360443 C45.946888,116.774974 46.530874,117.321745 46.999342,117.895234 C41.217904,118.105052 32.67394,118.749714 32.200428,118.785339 C30.7684,118.893411 29.69564,120.144635 29.804814,121.578958 C29.907644,122.945885 31.047692,123.986042 32.394648,123.986042 C32.460662,123.986042 32.526676,123.98349 32.593964,123.978411 C36.754224,123.661797 48.178728,122.883594 51.042784,123.061615 C51.871794,123.123932 52.670332,122.767891 53.199718,122.130833 C53.730378,121.493776 53.927172,120.643099 53.72783,119.838203 C53.674504,119.622031 52.37323,114.521797 47.898136,111.888385 C45.519032,110.489661 42.76922,110.047161 39.695682,110.571042 C34.613748,104.25263 30.095494,96.2595573 31.243134,94.1373177 C32.143228,92.4715625 35.084738,91.5395052 38.198888,90.5527865 C42.164902,89.2955208 46.593664,87.8839323 49.68561,84.3635937 C52.962104,85.2384375 65.59982,88.3326302 80.466672,88.3326302 C85.572578,88.3326302 90.939836,87.9584635 96.276934,87.0117969 C97.22609,94.9215104 101.212098,116.911667 101.4,117.942266 C101.625966,119.199844 102.720306,120.081042 103.954292,120.081042 C104.109174,120.081042 104.264056,120.067057 104.421486,120.039089 C105.835756,119.78224 106.772666,118.426745 106.51368,117.011484 C105.119742,109.326146 101.460944,88.547474 101.278138,84.7327865 C101.12323,81.4661198 103.916202,76.2616146 105.00802,74.5310156 Z" id="Shape"></path>
                    <path d="M187.337098,18.5363281 L186.55507,17.8522135 C182.901368,14.5588542 178.569716,12.084401 174.380258,9.69130208 C173.164056,8.99703125 171.955446,8.3065625 170.774786,7.60210937 C165.201556,4.27570312 159.945682,1.12476562 152.181224,3.0740625 C150.787286,3.42247396 149.939244,4.83645833 150.28962,6.23263021 C150.637474,7.62627604 152.051718,8.48203125 153.440586,8.12726562 C158.861482,6.77049479 162.370468,8.64861979 168.113816,12.0754687 C169.319878,12.7964583 170.558934,13.5047135 171.805608,14.2155208 C175.753838,16.4725521 179.839192,18.8046094 183.079052,21.7241146 L183.939782,22.478151 C186.821622,24.9704167 188.284122,26.6348958 188.284122,27.4232812 C188.284122,27.8254167 188.194786,28.410026 188.046872,29.0931771 L186.524546,28.3896875 C185.219476,27.7857031 183.675726,28.3604427 183.073956,29.6638021 C182.472186,30.9696875 183.040936,32.5171875 184.346032,33.1199219 L186.464876,34.0991927 C185.199482,37.2916146 183.466712,40.456224 181.890748,41.0875521 C178.810866,42.3209635 175.141928,42.557474 171.960464,42.6248698 C170.916902,42.6477604 169.827658,42.5447656 168.652068,42.4379427 C166.349144,42.228125 163.97004,42.0094271 161.58077,42.6134115 C155.959284,44.03375 152.23195,48.6864063 148.941312,52.7922917 C148.161832,53.7650521 147.402632,54.7148958 146.646006,55.5782812 C144.932138,57.5314062 143.25129,59.513776 141.572964,61.4961458 C137.985276,65.7253646 134.278248,70.0995573 130.329992,74.0541406 C128.154026,76.2335937 120.59268,84.1745312 114.750298,94.8607812 C108.895228,105.569896 112.914568,114.071589 113.089756,114.42763 C113.577256,115.427083 114.630958,116.009453 115.753222,115.868307 C120.003624,115.330443 122.588388,116.782552 124.09657,118.349141 C120.828786,118.487734 116.070604,118.649219 111.678008,118.778932 C110.243432,118.820885 109.11355,120.02125 109.154188,121.458125 C109.197348,122.869557 110.352632,123.98599 111.75164,123.98599 C111.779564,123.98599 111.804966,123.98599 111.830342,123.984714 C117.738738,123.810521 127.823904,123.483724 129.007112,123.245937 C129.725674,123.10224 130.347724,122.661016 130.72605,122.032865 C131.101828,121.404714 131.198314,120.646849 130.987584,119.944948 C129.949118,116.469766 125.668244,110.442526 117.230932,110.546797 C116.619022,108.134635 116.093432,103.248021 119.310412,97.3632031 C124.822724,87.2847656 131.952392,79.7939844 134.006496,77.7378646 C138.104538,73.6319792 141.882676,69.1764063 145.536378,64.8670833 C147.19692,62.9063281 148.86001,60.946849 150.551024,59.0166146 C151.358454,58.0959896 152.168406,57.0876562 152.99869,56.0526042 C155.911002,52.4159375 158.922322,48.6559115 162.850246,47.6640885 C164.381308,47.273724 166.224656,47.4441146 168.177204,47.6246615 C169.444184,47.7403646 170.767038,47.86625 172.072134,47.8332031 C175.720766,47.754375 179.971168,47.4657292 183.820364,45.9233073 C189.964892,43.4615625 193.484044,30.5551562 193.484044,27.4207552 C193.481652,23.8476562 189.784764,20.6509375 187.337098,18.5363281 Z" id="Shape"></path>
                    <path d="M166.834174,22.4540365 C167.176958,22.6066146 167.5375,22.6791146 167.887876,22.6791146 C168.88573,22.6791146 169.835328,22.1018229 170.26698,21.1303385 C170.848418,19.8168229 170.259362,18.2782292 168.946674,17.6933073 L165.849008,16.3149219 C164.531224,15.73 163.000188,16.3276302 162.416202,17.6386198 C161.834764,18.9521354 162.42382,20.4907292 163.736508,21.075651 L166.834174,22.4540365 Z" id="Shape"></path>
                </g>
            </g>
        </g>
    </g>
</svg>