<?xml version="1.0" encoding="utf-8"?>
<!-- Generator: Adobe Illustrator 21.0.2, SVG Export Plug-In . SVG Version: 6.00 Build 0)  -->
<svg version="1.1" id="Layer_1" xmlns="http://www.w3.org/2000/svg" xmlns:xlink="http://www.w3.org/1999/xlink" x="0px" y="0px"
	 viewBox="0 0 100 100.5" style="enable-background:new 0 0 100 100.5;" xml:space="preserve">
<style type="text/css">
	.st0{fill:#010101;}
</style>
<title>Icon</title>
<path class="st0" d="M80.1,43.4c-0.4-0.5-0.9-0.8-1.5-0.8c-0.9,0.1-1.8,0.5-2.4,1.2c0.9-3.7,2.2-9.9,2.2-13.8
	c0-4.5-2.9-12.5-6.8-16.3C68.7,10.6,57,3.2,48,3.2s-20.8,7.4-23.8,10.4c-3.9,3.8-6.8,11.7-6.8,16.3c0,4,1.4,10.2,2.2,13.8
	c-0.6-0.7-1.5-1.1-2.5-1.2c-0.6,0-1.1,0.3-1.5,0.8c-0.9,1.1-1.4,2.4-1.5,3.8c0.1,1.1,0.2,2.1,0.2,3c0.1,1.7,0.3,3.4,0.6,5
	c0.7,4.1,2.5,6.1,3.5,6.8c0.4,0.3,0.9,0.5,1.4,0.5c0.1,0,0.3,0,0.4,0c0,1,0,2,0,3.3c0,10.4,10.4,21.4,11.6,22.7
	c8.3,8.9,22.1,9.4,31,1.1c0.4-0.4,0.8-0.7,1.1-1.1c1.2-1.2,11.5-12.2,11.5-22.7c0-1.3,0-2.3,0-3.3c0.1,0,0.2,0,0.4,0
	c0.5,0,1-0.2,1.4-0.5c1-0.8,2.8-2.7,3.6-6.8c0.3-1.7,0.5-3.4,0.5-5c0.1-0.9,0.1-1.8,0.2-3C81.6,45.8,81.1,44.4,80.1,43.4z
	 M73.5,46.2l-0.1,1.6c0,5.5,0,8.3,0.1,10.8v1.2c-1,3.8-2.8,7.4-5.2,10.6c-2.1,2.8-3.9,5.9-5.2,9.2L63,69.9c0,0-6.9-3.8-8.6-4.6
	c-1.4-0.5-2.8-0.8-4.3-0.8L48,66.2l-1.9-1.7c-1.7,0-3.5,0.3-5.1,0.8c-1.8,0.8-7.6,4.6-7.6,4.6l-0.1,9.6c-1.4-3.2-3.2-6.3-5.3-9.2
	c-4.4-6.1-5.4-10.4-5.6-13.2c0-2.2,0.1-4.9,0.1-9.5l-0.1-1.3v-0.2c0,0-0.4-1.6-1-3.9c0.4-6.8,2.2-9.4,2.2-9.4
	c-0.4-3.8-0.1-7.7,1-11.4c5.3-3,11.9-1.5,16.5-0.4c5.4,1,10.9,0.9,16.3-0.2c0,0,3.8-5.3-1.7-8.2c3.5,1.3,6.5,3.3,4.9,8.2
	c3.5,0,7.2-0.8,10.7,0.7c1.1,3.7,1.4,7.6,1,11.4c0,0,1.8,2.6,2.2,9.4C73.9,44.6,73.5,46.2,73.5,46.2z M48,79c-2.5,0-5.1-0.3-7.5-0.9
	c1.4,2,6.6,3.4,7.4,3.7c-3.8,0.1-3,3.4-8.1-0.8S36,72.6,36,72.6c1-0.3,3.7-2.8,5-3.4c1.6-0.5,3.2-0.8,4.9-0.9l2.1,1.1l2.3-1.1
	c1.4,0.1,2.7,0.4,4,0.9c1.2,0.6,4.9,3.2,6,3.4c0,0,0.2,4.3-4.9,8.4s-3.4,0.8-7.2,0.8c0.8-0.2,6-1.7,7.4-3.7C53.1,78.7,50.5,79,48,79
	z M19.5,60.9c-0.8-0.6-2.3-2.3-3-5.9c-0.3-1.6-0.4-3.3-0.5-4.9c-0.1-0.9-0.1-1.9-0.2-3c0.1-1,0.4-1.9,1-2.6c0.1-0.2,0.3-0.3,0.4-0.4
	c1,0,2.4,1.7,3.1,2.6l0.1,0.1v0.9c0,5.4,0,8.3-0.1,10.8c0,0.8,0,1.6,0,2.4C20.1,61.1,19.7,61,19.5,60.9z M79.9,50.1
	c-0.1,1.6-0.2,3.3-0.5,4.9c-0.7,3.6-2.2,5.3-3,5.9c-0.3,0.2-0.6,0.2-0.9,0.1c0-0.8,0-1.6,0-2.4c0-2.5-0.1-5.3-0.1-10.7l0.1-1
	l0.1-0.1c0.7-0.9,2.1-2.6,3.1-2.6c0.2,0.1,0.3,0.2,0.4,0.4c0.6,0.8,0.9,1.7,1,2.6C80,48.2,80,49.2,79.9,50.1z"/>
<path class="st0" d="M37.7,44.6c-2-0.4-5-0.2-8.3,3.3c-0.3,0.3-0.4,0.7-0.1,1.1c0.3,0.3,0.7,0.4,1.1,0.1c0.1-0.1,0.1-0.1,0.2-0.2
	c0.8-0.9,1.8-1.6,2.8-2.2c0.1,1.4,1.4,2.5,2.8,2.4c1.3-0.1,2.4-1.2,2.4-2.5c0,0,0-0.1,0-0.2c0.6,0.3,1.2,0.6,1.8,1.1
	c0.3,0.3,0.7,0.4,1.1,0.1c0.3-0.3,0.4-0.7,0.1-1.1c-0.1-0.1-0.1-0.1-0.2-0.2C40.2,45.5,39,44.9,37.7,44.6z"/>
<path class="st0" d="M42.4,42.3c0,0,0.1-2,0.1-3.6c-4.1-1.6-8.6-1.8-12.9-0.6c-1.1,1-3.8,3.7-3.9,4.3s-1.1,4.1-1.1,4.1
	C29.2,39.1,42.4,42.3,42.4,42.3z"/>
<path class="st0" d="M58.4,44.6c-1.3,0.3-2.6,0.9-3.6,1.8c-0.3,0.2-0.4,0.7-0.2,1s0.7,0.4,1,0.2c0.1,0,0.1-0.1,0.2-0.2
	c0.5-0.4,1.1-0.8,1.8-1.1v0.1c0,1.4,1.2,2.6,2.7,2.6c1.3,0,2.4-1.1,2.5-2.4c1.1,0.6,2,1.3,2.8,2.2c0.2,0.3,0.7,0.4,1,0.2
	s0.4-0.7,0.2-1c0-0.1-0.1-0.1-0.2-0.2C63.5,44.5,60.4,44.2,58.4,44.6z"/>
<path class="st0" d="M66.5,38c-4.2-1.2-8.8-1-12.9,0.6c0,1.6,0.1,3.6,0.1,3.6s13.2-3.2,17.7,4.2c0,0-1-3.5-1.1-4.1
	S67.6,39.1,66.5,38z"/>
<path class="st0" d="M58.7,73.4c-1-0.3-3.2-2.4-5.3-3.1c-1.1-0.3-2.2-0.5-3.3-0.6L48,70.8l-2.2-1.1c-1.1,0.1-2.3,0.3-3.3,0.6
	c-2.1,0.7-4.3,2.8-5.3,3.1c0.6,0.4,1.4,0.6,2.2,0.5c1.4-0.3,2.9-0.5,4.3-0.5c1.5,0,2.3,0.9,4.3,0.9s2.8-0.9,4.3-0.9
	c1.1,0,2.2,0.2,3.3,0.5C56.6,74,57.7,73.8,58.7,73.4z"/>
<path class="st0" d="M48.2,61.4c-2.8,0-5.7-0.7-6.4-0.6c0.2,0.2,0.4,0.4,0.7,0.6c1.6,1.2,3.7,1.8,5.7,1.8c2.4,0.1,4.7-0.8,6.4-2.5
	C54,60.6,51,61.4,48.2,61.4z"/>
</svg>
