<?xml version="1.0" encoding="UTF-8"?>
<svg width="200px" height="200px" viewBox="0 0 200 200" version="1.1" xmlns="http://www.w3.org/2000/svg" xmlns:xlink="http://www.w3.org/1999/xlink">
    <!-- Generator: Sketch 42 (36781) - http://www.bohemiancoding.com/sketch -->
    <title>jay</title>
    <desc>Created with Sketch.</desc>
    <defs></defs>
    <g id="Page-1" stroke="none" stroke-width="1" fill="none" fill-rule="evenodd">
        <g id="jay" stroke-width="2.5" stroke="#000000">
            <g id="noun_489091_cc" transform="translate(36.000000, 10.000000)">
                <g id="Group">
                    <path d="M43.896,10.1365 C36.6608889,15.326 31.1615556,17.9611667 29.4582222,28.6958333" id="Shape"></path>
                    <path d="M72.0253333,38.8808333 C72.1388889,37.927 72.0415556,33.5135 72.0415556,32.5111667 C72.0415556,19.9658333 73.6637778,13.2405 61.8215556,11.2843333" id="Shape"></path>
                    <path d="M109.482444,136.9155 C109.482444,136.9155 112.142889,171.916333 113.343333,178.868 C113.538,179.967333 115.711778,179.1105 116.733778,178.6255 C117.820667,178.092 118.453333,175.893333 119.880889,175.7155 C121.535556,175.505333 126.645556,179.6925 126.694222,177.3645 C126.872667,169.653 124.650222,154.876667 120.967778,129.478833 C120.010667,122.9475 121.373333,114.524667 120.270222,107.847833 C117.496222,91.2931667 109.060667,68.4011667 99.5868889,56.939 C87.7771111,42.68 71.782,41.7423333 72.0415556,38.994" id="Shape"></path>
                    <path d="M87.7933333,141.555333 C87.4202222,141.555333 57.4577778,116.5455 49.0546667,107.928667 C39.6782222,98.3256667 34.8764444,77.988 31.2751111,62.1608333 C28.5497778,50.1651667 29.442,38.5575 29.442,38.5575" id="Shape"></path>
                    <path d="M29.3284444,29.1485 C16.6751111,25.3331667 -0.844888889,30.3771667 0.615111111,33.7721667 C1.18288889,35.0655 23.748,37.733 28.3388889,38.3958333" id="Shape"></path>
                    <g transform="translate(62.888889, 142.333333)" id="Shape">
                        <path d="M24.2068889,0.111166667 C18.74,0.709333333 7.82244444,1.92183333 3.83177778,3.02116667 C2.20955556,3.45766667 0.944222222,5.5755 0.327777778,6.6425"></path>
                        <path d="M16.9231111,7.62866667 C16.258,6.206 15.5928889,4.76716667 14.9115556,3.3445"></path>
                    </g>
                    <g transform="translate(60.888889, 134.333333)" id="Shape">
                        <path d="M18.8582222,1.111 C15.9382222,1.03016667 10.082,0.8685 7.98933333,1.77383333 C6.44822222,2.43666667 6.35088889,5.16883333 6.31844444,6.543"></path>
                        <path d="M0.835333333,2.469 C2.928,0.302666667 8.86533333,0.6745 12.8884444,0.9655"></path>
                        <path d="M12.4342222,4.7485 C12.2557778,3.76233333 12.0773333,2.79233333 11.8988889,1.80616667"></path>
                    </g>
                    <ellipse id="Oval" cx="46.6375556" cy="26.8528333" rx="1.68711111" ry="1.22866667"></ellipse>
                    <path d="M51.2284444,27.7096667 C51.2284444,27.7096667 61.2375556,23.4255 68.5375556,18.3653333 C75.8213333,13.3213333 61.7728889,52.7518333 31.8104444,58.2808333" id="Shape"></path>
                    <path d="M31.0966667,54.9666667 C31.0966667,54.9666667 42.1764444,51.2321667 50.5633333,43.3105 C57.9606667,36.2941667 53.8077778,29.4071667 51.9422222,28.2593333" id="Shape"></path>
                    <path d="M42.5982222,11.0741667 C48.8275556,6.5475 67.7102222,-1.261 70.0624444,1.4065 C72.4308889,4.05783333 58.0417778,9.2635 61.1564444,11.0903333" id="Shape"></path>
                    <path d="M70.0624444,80.9626667 C70.0624444,80.9626667 77.2002222,112.326 109.287778,136.220333" id="Shape"></path>
                    <path d="M87.3553333,141.2805 C90.3888889,143.721667 94.9473333,146.405333 100.722444,139.938667 C104.437333,135.767667 106.789556,169.265 108.200889,175.941833 C108.476667,177.283667 108.200889,179.256 109.125556,179.967333 C110.066444,180.694833 112.759333,179.466167 114.316667,179.579333" id="Shape"></path>
                    <path d="M83.9973333,107.104167 C84.8084444,105.245 84.6786667,102.5775 86.4144444,101.559 C88.1988889,100.508167 92.1084444,101.8985 94.6553333,100.8315 C99.0353333,98.9885 106.740889,93.9121667 112.791778,90.4686667" id="Shape"></path>
                    <path d="M88.3611111,113.118167 C89.156,111.275167 89.0424444,108.5915 90.7782222,107.573 C92.5464444,106.522167 96.4722222,107.9125 99.0028889,106.8455 C103.399111,105.0025 111.104667,99.9423333 117.139333,96.4826667" id="Shape"></path>
                    <path d="M109.417556,102.3835 L120.643333,117.5155" id="Shape"></path>
                    <path d="M101.436222,106.716167 L120.708222,132.421167" id="Shape"></path>
                    <path d="M92.0111111,109.593833 L123.693111,150.091333" id="Shape"></path>
                    <path d="M110.293556,147.035833 L125.737111,166.613667" id="Shape"></path>
                    <path d="M112.078,163.445 L122.671111,176.426833" id="Shape"></path>
                </g>
            </g>
        </g>
    </g>
</svg>