<?xml version="1.0" encoding="UTF-8"?>
<svg width="200px" height="200px" viewBox="0 0 200 200" version="1.1" xmlns="http://www.w3.org/2000/svg" xmlns:xlink="http://www.w3.org/1999/xlink">
    <!-- Generator: Sketch 42 (36781) - http://www.bohemiancoding.com/sketch -->
    <title>nachos</title>
    <desc>Created with Sketch.</desc>
    <defs></defs>
    <g id="Page-1" stroke="none" stroke-width="1" fill="none" fill-rule="evenodd">
        <g id="nachos" fill-rule="nonzero" fill="#000000">
            <g id="noun_107468_cc" transform="translate(3.000000, 52.000000)">
                <g id="Group">
                    <path d="M79.8671918,19.4762432 C81.590137,19.4762432 81.590137,16.8005676 79.8671918,16.8005676 C78.1442466,16.8005676 78.1442466,19.4762432 79.8671918,19.4762432 Z" id="Shape"></path>
                    <path d="M83.0967123,27.7922432 C84.8196575,27.7922432 84.8196575,25.1165676 83.0967123,25.1165676 C81.3737671,25.1165676 81.3737671,27.7922432 83.0967123,27.7922432 Z" id="Shape"></path>
                    <path d="M85.3993151,22.2455676 C87.1222603,22.2455676 87.1222603,19.5698919 85.3993151,19.5698919 C83.6763699,19.5698919 83.6763699,22.2455676 85.3993151,22.2455676 Z" id="Shape"></path>
                    <path d="M73.6405479,23.3987838 C75.3634932,23.3987838 75.3634932,20.7231081 73.6405479,20.7231081 C71.9176027,20.7231081 71.9176027,23.3987838 73.6405479,23.3987838 Z" id="Shape"></path>
                    <path d="M126.194384,23.4977838 C124.471438,23.4977838 124.471438,26.1734595 126.194384,26.1734595 C127.917329,26.1734595 127.917329,23.4977838 126.194384,23.4977838 Z" id="Shape"></path>
                    <path d="M124.818699,15.4118919 C123.095753,15.4118919 123.095753,18.0875676 124.818699,18.0875676 C126.541644,18.0875676 126.538973,15.4118919 124.818699,15.4118919 Z" id="Shape"></path>
                    <path d="M121.359452,23.4977838 C119.636507,23.4977838 119.636507,26.1734595 121.359452,26.1734595 C123.082397,26.1734595 123.079726,23.4977838 121.359452,23.4977838 Z" id="Shape"></path>
                    <path d="M50.3634247,27.6557838 C48.6404795,27.6557838 48.6404795,30.3314595 50.3634247,30.3314595 C52.0863699,30.3314595 52.0863699,27.6557838 50.3634247,27.6557838 Z" id="Shape"></path>
                    <path d="M60.5034247,25.3413243 C58.7804795,25.3413243 58.7804795,28.017 60.5034247,28.017 C62.2263699,28.017 62.2263699,25.3413243 60.5034247,25.3413243 Z" id="Shape"></path>
                    <path d="M60.7331507,24.0944595 C62.4560959,24.0944595 62.4560959,21.4187838 60.7331507,21.4187838 C59.0102055,21.4187838 59.0102055,24.0944595 60.7331507,24.0944595 Z" id="Shape"></path>
                    <path d="M63.2734932,28.017 C64.9964384,28.017 64.9964384,25.3413243 63.2734932,25.3413243 C61.5505479,25.3413243 61.5505479,28.017 63.2734932,28.017 Z" id="Shape"></path>
                    <path d="M58.6629452,16.2413514 C60.3858904,16.2413514 60.3858904,13.5656757 58.6629452,13.5656757 C56.94,13.5656757 56.94,16.2413514 58.6629452,16.2413514 Z" id="Shape"></path>
                    <path d="M56.1226027,20.4983514 C54.3996575,20.4983514 54.3996575,23.174027 56.1226027,23.174027 C57.8455479,23.174027 57.8455479,20.4983514 56.1226027,20.4983514 Z" id="Shape"></path>
                    <path d="M58.5854795,18.0527838 C58.3744521,17.8628108 58.1046575,17.7263514 57.7413699,17.7263514 C56.0184247,17.7263514 56.0184247,20.402027 57.7413699,20.402027 C58.7697945,20.402027 59.1704795,19.4521622 58.970137,18.6842432 C59.1811644,18.8742162 59.4509589,19.0106757 59.8142466,19.0106757 C61.5371918,19.0106757 61.5371918,16.335 59.8142466,16.335 C58.7858219,16.335 58.385137,17.2848649 58.5854795,18.0527838 Z" id="Shape"></path>
                    <path d="M47.3716438,55.8172703 C45.6486986,55.8172703 45.6486986,58.4929459 47.3716438,58.4929459 C49.094589,58.4929459 49.094589,55.8172703 47.3716438,55.8172703 Z" id="Shape"></path>
                    <path d="M47.5906849,51.1990541 C45.8677397,51.1990541 45.8677397,53.8747297 47.5906849,53.8747297 C49.3136301,53.8747297 49.3136301,51.1990541 47.5906849,51.1990541 Z" id="Shape"></path>
                    <path d="M54.0523973,56.0527297 C52.3294521,56.0527297 52.3294521,58.7284054 54.0523973,58.7284054 C55.7753425,58.7284054 55.7753425,56.0527297 54.0523973,56.0527297 Z" id="Shape"></path>
                    <path d="M63.0117123,49.6765946 C61.3421918,47.9507838 59.119726,48.8845946 58.2943151,51.2579189 C57.7253425,52.8900811 60.3057534,53.5857568 60.8693836,51.9696486 C60.9254795,51.8358649 60.9815753,51.6994054 61.035,51.5682973 C61.2113014,51.2445405 61.2620548,51.2579189 61.195274,51.6004054 C61.2406849,51.6672973 61.3021233,51.6994054 61.3528767,51.7555946 C61.6039726,52.4753514 62.3946575,53.0345676 63.2574658,52.5475946 C64.5343151,51.8305135 65.8886301,51.1054054 67.2108904,52.082027 C68.5999315,53.1094865 69.9302055,50.787 68.559863,49.7729189 C66.804863,48.4725405 64.8254795,48.8498108 63.0117123,49.6765946 Z" id="Shape"></path>
                    <path d="M83.2409589,59.5364595 C84.1919178,58.9103514 83.9702055,57.0775135 82.5357534,57.0855405 C81.4271918,57.0935676 80.1076027,57.4066216 79.8191096,58.6802432 C79.4023973,60.5264595 80.4361644,61.0401892 81.9614384,61.668973 C83.299726,62.2201622 83.9782192,60.4916757 83.2409589,59.5364595 Z" id="Shape"></path>
                    <path d="M93.4717808,62.3592973 C94.2571233,60.8288108 91.9518493,59.4749189 91.1665068,61.0107568 C90.5067123,62.2977568 88.2735616,62.7392432 88.4338356,60.8127568 C88.5780822,59.0922973 85.9041781,59.1056757 85.7626027,60.8127568 C85.375274,65.4443514 91.6232877,65.9714595 93.4717808,62.3592973 Z" id="Shape"></path>
                    <path d="M103.836164,41.6228108 C102.110548,41.6228108 102.110548,44.2984865 103.836164,44.2984865 C105.561781,44.2984865 105.561781,41.6228108 103.836164,41.6228108 Z" id="Shape"></path>
                    <path d="M89.2726027,58.8835946 C90.9955479,58.8835946 90.9955479,56.2079189 89.2726027,56.2079189 C87.5496575,56.2079189 87.5496575,58.8835946 89.2726027,58.8835946 Z" id="Shape"></path>
                    <path d="M122.088699,60.4114054 C123.811644,60.4114054 123.811644,57.7357297 122.088699,57.7357297 C120.365753,57.7357297 120.368425,60.4114054 122.088699,60.4114054 Z" id="Shape"></path>
                    <path d="M111.652192,59.7612162 C113.375137,59.7612162 113.375137,57.0855405 111.652192,57.0855405 C109.926575,57.0855405 109.926575,59.7612162 111.652192,59.7612162 Z" id="Shape"></path>
                    <path d="M116.877123,56.7082703 C118.600068,56.7082703 118.600068,54.0325946 116.877123,54.0325946 C115.154178,54.0325946 115.154178,56.7082703 116.877123,56.7082703 Z" id="Shape"></path>
                    <path d="M114.261986,47.2872162 C112.539041,47.2872162 112.539041,49.9628919 114.261986,49.9628919 C115.984932,49.9628919 115.984932,47.2872162 114.261986,47.2872162 Z" id="Shape"></path>
                    <path d="M119.262534,43.8677027 C120.985479,43.8677027 120.985479,41.192027 119.262534,41.192027 C117.539589,41.192027 117.54226,43.8677027 119.262534,43.8677027 Z" id="Shape"></path>
                    <path d="M127.521986,34.0051622 C125.820411,34.1576757 125.804384,36.836027 127.521986,36.6808378 C128.315342,36.6112703 128.550411,36.4908649 128.579795,37.3069459 C128.638562,39.0274054 131.309795,39.0327568 131.251027,37.3069459 C131.168219,35.0513514 129.784521,33.8044865 127.521986,34.0051622 Z" id="Shape"></path>
                    <path d="M66.6739726,35.0941622 C64.3393151,34.8827838 62.1088356,36.0172703 61.6974658,38.4762162 C61.4143151,40.1618919 63.9867123,40.887 64.2725342,39.1879459 C64.4969178,37.8447568 65.4478767,37.6601351 66.6739726,37.7698378 C68.3915753,37.925027 68.3755479,35.2493514 66.6739726,35.0941622 Z" id="Shape"></path>
                    <path d="M83.7618493,37.7564595 C81.5687671,36.9591081 79.2715068,37.9785405 78.3419178,40.1083784 C77.6580822,41.6736486 79.9580137,43.0355676 80.6471918,41.4595946 C81.1333562,40.3465135 81.8866438,39.9130541 83.0513014,40.3358108 C84.675411,40.9271351 85.3672603,38.3424324 83.7618493,37.7564595 Z" id="Shape"></path>
                    <path d="M84.4243151,42.0134595 C84.2026027,42.2328649 83.9835616,42.4549459 83.7618493,42.6743514 C82.5410959,43.8944595 84.4296575,45.7861622 85.650411,44.5660541 C85.8721233,44.343973 86.0911644,44.1245676 86.3128767,43.9051622 C87.5336301,42.6877297 85.6450685,40.796027 84.4243151,42.0134595 Z" id="Shape"></path>
                    <path d="M52.9999315,38.2568108 C52.7274658,39.9424865 55.299863,40.6675946 55.575,38.9685405 C55.7940411,37.6146486 57.1617123,37.3845405 58.1233562,38.2568108 C59.394863,39.4127027 61.2914384,37.5263514 60.0119178,36.3651081 C57.7226712,34.2834324 53.5608904,34.7837838 52.9999315,38.2568108 Z" id="Shape"></path>
                    <path d="M104.781781,31.572973 C103.333973,30.0531892 101.389315,30.2966757 99.6343151,31.0699459 C99.6717123,30.6204324 99.5381507,30.1468378 99.0973973,29.8123784 C97.5213699,28.6083243 95.5179452,28.322027 94.1823288,30.0210811 C93.1271918,31.3589189 95.0050685,33.2666757 96.0708904,31.9127838 C96.6505479,31.1742973 97.1180137,31.6398649 97.7484247,32.1214865 C98.1223973,32.4051081 98.4856849,32.4291892 98.7982192,32.3087838 C98.910411,33.1221892 99.8159589,33.9115135 100.815,33.4486216 C101.509521,33.1302162 102.308219,32.8465946 102.893219,33.4646757 C104.084589,34.7168919 105.967808,32.8225135 104.781781,31.572973 Z" id="Shape"></path>
                    <path d="M108.615,15.7891622 C110.340616,15.7891622 110.340616,13.1134865 108.615,13.1134865 C106.889384,13.1134865 106.892055,15.7891622 108.615,15.7891622 Z" id="Shape"></path>
                    <path d="M111.652192,9.91337838 C113.375137,9.91337838 113.375137,7.2377027 111.652192,7.2377027 C109.926575,7.2377027 109.926575,9.91337838 111.652192,9.91337838 Z" id="Shape"></path>
                    <path d="M32.3379452,69.7709189 C38.5512329,70.5575676 44.5134247,72.6445946 50.8121918,72.8158378 C52.535137,72.864 52.5324658,70.1883243 50.8121918,70.1401622 C44.5374658,69.9742703 38.5405479,67.8818919 32.3379452,67.0952432 C30.6336986,66.8785135 30.6550685,69.5568649 32.3379452,69.7709189 Z" id="Shape"></path>
                    <path d="M41.1156164,67.5447568 C44.1180822,68.0076486 47.1152055,68.4277297 50.1577397,68.4598378 C51.8806849,68.4785676 51.8806849,65.8028919 50.1577397,65.7841622 C47.3529452,65.7547297 44.5935616,65.3935135 41.8261644,64.9627297 C40.1406164,64.7058649 39.4167123,67.2825405 41.1156164,67.5447568 Z" id="Shape"></path>
                    <path d="M25.6037671,59.0387838 C23.8808219,59.0387838 23.8808219,61.7144595 25.6037671,61.7144595 C27.3267123,61.7144595 27.3267123,59.0387838 25.6037671,59.0387838 Z" id="Shape"></path>
                    <path d="M31.4697945,54.2493243 C29.7468493,54.2493243 29.7468493,56.925 31.4697945,56.925 C33.1927397,56.925 33.1927397,54.2493243 31.4697945,54.2493243 Z" id="Shape"></path>
                    <path d="M20.8222603,57.2969189 C19.0993151,57.2969189 19.0993151,59.9725946 20.8222603,59.9725946 C22.5452055,59.9725946 22.5452055,57.2969189 20.8222603,57.2969189 Z" id="Shape"></path>
                    <path d="M30.5989726,37.7698378 C32.3219178,37.7698378 32.3219178,35.0941622 30.5989726,35.0941622 C28.8760274,35.0941622 28.8760274,37.7698378 30.5989726,37.7698378 Z" id="Shape"></path>
                    <path d="M30.8206849,38.5805676 C29.0977397,38.5805676 29.0977397,41.2562432 30.8206849,41.2562432 C32.5436301,41.2562432 32.5436301,38.5805676 30.8206849,38.5805676 Z" id="Shape"></path>
                    <path d="M148.579315,53.0024595 C150.30226,53.0024595 150.30226,50.3267838 148.579315,50.3267838 C146.85637,50.3267838 146.859041,53.0024595 148.579315,53.0024595 Z" id="Shape"></path>
                    <path d="M149.866849,73.3616757 C150.179384,73.3616757 150.417123,73.251973 150.614795,73.1074865 C150.320959,73.8941351 150.71363,74.9697568 151.806164,74.9697568 C153.52911,74.9697568 153.52911,72.2940811 151.806164,72.2940811 C151.49363,72.2940811 151.25589,72.4037838 151.058219,72.5482703 C151.352055,71.7616216 150.959384,70.686 149.866849,70.686 C148.146575,70.686 148.146575,73.3616757 149.866849,73.3616757 Z" id="Shape"></path>
                    <path d="M164.067123,61.4040811 C165.790068,61.4040811 165.790068,58.7284054 164.067123,58.7284054 C162.344178,58.7284054 162.344178,61.4040811 164.067123,61.4040811 Z" id="Shape"></path>
                    <path d="M168.581507,64.3071892 C170.304452,64.3071892 170.304452,61.6315135 168.581507,61.6315135 C166.858562,61.6315135 166.861233,64.3071892 168.581507,64.3071892 Z" id="Shape"></path>
                    <path d="M161.799247,66.5815135 C163.522192,66.5815135 163.522192,63.9058378 161.799247,63.9058378 C160.076301,63.9058378 160.078973,66.5815135 161.799247,66.5815135 Z" id="Shape"></path>
                    <path d="M169.227945,56.5584324 C170.95089,56.5584324 170.95089,53.8827568 169.227945,53.8827568 C167.505,53.8827568 167.505,56.5584324 169.227945,56.5584324 Z" id="Shape"></path>
                    <path d="M164.71089,55.9109189 C166.433836,55.9109189 166.433836,53.2352432 164.71089,53.2352432 C162.987945,53.2352432 162.990616,55.9109189 164.71089,55.9109189 Z" id="Shape"></path>
                    <path d="M114.382192,72.9469459 C112.659247,72.9469459 112.659247,75.6226216 114.382192,75.6226216 C116.105137,75.6226216 116.105137,72.9469459 114.382192,72.9469459 Z" id="Shape"></path>
                    <path d="M122.449315,74.8787838 C120.72637,74.8787838 120.72637,77.5544595 122.449315,77.5544595 C124.17226,77.5544595 124.169589,74.8787838 122.449315,74.8787838 Z" id="Shape"></path>
                    <path d="M123.736849,68.7461351 C122.013904,68.7461351 122.013904,71.4218108 123.736849,71.4218108 C125.459795,71.4218108 125.459795,68.7461351 123.736849,68.7461351 Z" id="Shape"></path>
                    <path d="M126.643151,78.2073243 C128.366096,78.2073243 128.366096,75.5316486 126.643151,75.5316486 C124.920205,75.5316486 124.922877,78.2073243 126.643151,78.2073243 Z" id="Shape"></path>
                    <path d="M93.4103425,79.0902973 C91.6873973,79.0902973 91.6873973,81.765973 93.4103425,81.765973 C95.1332877,81.765973 95.1332877,79.0902973 93.4103425,79.0902973 Z" id="Shape"></path>
                    <path d="M90.8272603,73.2707027 C89.1043151,73.2707027 89.1043151,75.9463784 90.8272603,75.9463784 C92.5502055,75.9463784 92.5502055,73.2707027 90.8272603,73.2707027 Z" id="Shape"></path>
                    <path d="M90.8272603,72.3877297 C92.5502055,72.3877297 92.5502055,69.7120541 90.8272603,69.7120541 C89.1043151,69.7120541 89.1043151,72.3877297 90.8272603,72.3877297 Z" id="Shape"></path>
                    <path d="M93.4103425,76.2647838 C95.1332877,76.2647838 95.1332877,73.5891081 93.4103425,73.5891081 C91.6873973,73.5891081 91.6873973,76.2647838 93.4103425,76.2647838 Z" id="Shape"></path>
                    <path d="M71.4768493,64.9547027 C71.4955479,64.9547027 71.5062329,64.9466757 71.5249315,64.944 C71.3753425,65.6958649 71.7760274,66.5788378 72.7670548,66.5788378 C74.49,66.5788378 74.49,63.9031622 72.7670548,63.9031622 C72.7483562,63.9031622 72.7376712,63.9111892 72.7189726,63.9138649 C72.8685616,63.162 72.4678767,62.279027 71.4768493,62.279027 C69.7539041,62.279027 69.7539041,64.9547027 71.4768493,64.9547027 Z" id="Shape"></path>
                    <path d="M73.4108219,70.1294595 C75.1337671,70.1294595 75.1337671,67.4537838 73.4108219,67.4537838 C71.6878767,67.4537838 71.6878767,70.1294595 73.4108219,70.1294595 Z" id="Shape"></path>
                    <path d="M70.1839726,69.803027 C71.9069178,69.803027 71.9069178,67.1273514 70.1839726,67.1273514 C68.4610274,67.1273514 68.4610274,69.803027 70.1839726,69.803027 Z" id="Shape"></path>
                    <path d="M109.197329,35.5249459 C108.972945,35.2948378 108.724521,35.2011892 108.476096,35.1637297 C109.071781,34.1844324 107.925822,32.6405676 106.638288,33.3228649 C105.703356,33.8151892 104.86726,34.4305946 104.023151,35.0620541 C102.660822,36.0814865 103.991096,38.4066486 105.374795,37.3711622 C105.895685,36.9805135 106.429932,36.6059189 106.972192,36.2527297 C106.884041,36.6353514 106.948151,37.0527568 107.306096,37.4193243 C107.621301,37.7430811 107.848356,38.0481081 108.064726,38.4467838 C108.892808,39.9585405 111.198082,38.61 110.37,37.0955676 C110.052123,36.5095946 109.662123,36.0038919 109.197329,35.5249459 Z" id="Shape"></path>
                    <path d="M193.095411,43.8275676 C183.831575,22.2696486 151.066233,21.2609189 132.121849,14.4647027 C131.929521,14.3951351 131.750548,14.3764054 131.590274,14.3897838 C130.845,9.96689189 129.821918,5.57878378 128.806849,1.1987027 C128.542397,0.0588648649 126.92363,-0.101675676 126.365342,0.877621622 C124.508836,4.13927027 122.831301,7.4357027 121.217877,10.7562162 C120.280274,10.5287838 119.337329,10.4271081 118.367671,10.4217568 C117.934932,10.4217568 117.611712,10.5876486 117.398014,10.8418378 C117.037397,9.74481081 116.692808,8.64510811 116.289452,7.55878378 C115.466712,5.35402703 114.440959,1.95859459 112.116986,0.880297297 C109.688836,-0.248837838 106.830616,3.11181081 105.417534,4.57272973 C103.448836,6.60891892 101.410685,8.57286486 99.3645205,10.5287838 C99.3618493,9.86254054 98.9397945,9.24445946 98.0876712,9.33275676 C94.7165753,9.68059459 91.3321233,9.69932432 87.9476712,9.69932432 C87.6324658,9.69932432 87.3920548,9.80902703 87.1943836,9.95618919 C86.3903425,7.90127027 85.4847945,5.90254054 84.354863,4.04027027 C83.8927397,3.2777027 82.8990411,3.18672973 82.2579452,3.77002703 C80.1930822,5.65102703 78.1843151,7.57483784 76.2022603,9.52540541 C76.0927397,8.811 75.4810274,8.12067568 74.5621233,8.29459459 C70.7075342,9.02237838 66.9036986,9.98027027 62.9636301,10.0605405 C61.2433562,10.0953243 61.2406849,12.771 62.9636301,12.7362162 C66.9624658,12.6559459 70.8330822,11.7355135 74.7410959,10.9782973 C71.76,13.9830811 68.8937671,17.0948919 66.1691096,20.3592162 C64.0107534,15.7945135 61.6467123,11.3555676 58.1981507,7.57751351 C57.7520548,7.08786486 56.7423288,7.0182973 56.309589,7.57751351 C53.4673973,11.2619189 50.9858219,15.2058649 48.509589,19.1444595 C36.5825342,16.3885135 25.6758904,19.4628649 17.274863,26.1038919 C24.1185616,16.0487027 41.3586986,13.3061351 52.4630137,12.0111081 C54.1539041,11.8131081 54.1726027,9.13743243 52.4630137,9.33543243 C40.0604795,10.7802973 21.4179452,13.7984595 14.384589,25.5981892 C13.7889041,26.5988919 14.6410274,27.513973 15.5305479,27.5648108 C6.97993151,35.1503514 1.3810274,46.5701351 0.542260274,59.1056757 C0.248424658,63.5018108 1.07650685,68.3340811 3.09061644,72.4626486 C5.80191781,80.6582432 11.6492466,86.121973 20.6406164,89.7689189 C27.2973288,92.466 34.8515753,92.7603243 41.9143151,93.2312432 C55.2758219,94.1195676 68.6373288,94.9142432 82.0202055,95.4226216 C103.878904,96.2574324 126.651164,97.5925946 148.354932,94.4861351 C159.168082,92.9369189 176.851644,89.685973 180.63411,77.6534595 C180.818425,77.4715135 181.000068,77.2815405 181.181712,77.0942432 C190.763425,69.4418108 198.058562,55.3704324 193.095411,43.8275676 Z M162.822329,26.037 C152.869315,23.3479459 141.682192,22.5666486 132.423699,20.7953514 C132.316849,19.6073514 132.180616,18.4247027 132.020342,17.2447297 C142.117603,20.8007027 152.647603,22.8743514 162.822329,26.037 Z M176.114384,77.3404054 C175.473288,77.706973 174.858904,78.1002973 174.180411,78.4267297 C173.603425,78.705 173.432466,79.1946486 173.517945,79.6655676 C172.174315,80.7385135 170.779932,81.7124595 169.310753,82.4857297 C153.112397,90.9997297 129.127397,88.0591622 111.515959,87.9922703 C110.124247,87.9869189 108.729863,87.9253784 107.338151,87.9093243 C107.519795,87.8665135 107.70411,87.8397568 107.888425,87.7889189 C108.935548,87.5106486 109.093151,86.3012432 108.478767,85.5520541 C106.291027,82.8790541 103.969726,80.2782973 101.715205,77.6320541 C104.007123,77.6614865 106.486027,76.6848649 108.411986,75.5477027 C108.251712,76.1925405 108.05137,76.824 107.936507,77.4902432 C107.805616,78.2287297 108.120822,78.8976486 108.868767,79.1357838 C116.075753,81.4181351 123.731507,80.8348378 131.128151,82.0388919 C132.063082,82.1914054 132.698836,81.666973 132.819041,80.7492162 C133.217055,77.7123243 132.226027,75.1276216 131.157534,72.3181622 C130.973219,71.8285135 130.593904,71.577 130.187877,71.478 C129.859315,70.0384865 129.488014,68.607 129.228904,67.1487568 C128.927055,65.4523784 126.351986,66.1748108 126.651164,67.8604865 C126.824795,68.8344324 127.057192,69.7976757 127.29226,70.7582432 C125.919247,71.0873514 126.01274,73.3697027 127.612808,73.3697027 C127.706301,73.3697027 127.775753,73.3349189 127.858562,73.3188649 C127.882603,73.4392703 127.917329,73.557 127.938699,73.6774054 C128.069589,74.4025135 128.614521,74.6647297 129.172808,74.6219189 C129.723082,76.131 130.131781,77.6374054 130.182534,79.2401351 C123.739521,78.4053243 117.114863,78.6033243 110.832123,76.8989189 C111.831164,72.4813784 113.839932,68.5213784 116.185274,64.6336216 C116.396301,64.2831081 116.420342,63.9432973 116.334863,63.6462973 C120.459247,64.3847838 124.572945,65.1901622 128.683973,66.0303243 C130.30274,67.9247027 130.508425,71.3442162 132.784315,73.0298919 C134.509932,74.3061892 139.454384,75.3149189 141.22274,73.5275676 C142.964384,71.7616216 142.229795,69.2170541 142.245822,66.9775135 C142.253836,65.8644324 142.772055,65.1179189 143.568082,64.5801081 C145.050616,65.5433514 146.50911,66.536027 147.96226,67.5287027 C147.064726,67.7267027 146.789589,68.7247297 147.131507,69.4418108 C145.590205,69.6184054 145.632945,72.0827027 147.294452,72.0827027 C148.443082,72.0827027 148.80637,70.9054054 148.424384,70.1107297 C149.257808,70.0170811 149.618425,69.2732432 149.516918,68.5855946 C152.404521,70.5415135 155.321507,72.4305405 158.430822,74.0225676 C154.843356,75.0928378 151.218493,76.0052432 147.569589,76.832027 C147.705822,76.0855135 147.302466,75.2212703 146.322123,75.2212703 C145.096027,75.2212703 144.759452,76.5671351 145.277671,77.3484324 C142.686575,77.9290541 140.100822,78.5284054 137.525753,79.1759189 C137.223904,78.020027 137.157123,76.8266757 137.338767,75.5905135 C137.458973,73.8673784 134.78774,73.8780811 134.667534,75.5905135 C134.525959,77.6106486 134.753014,79.1545135 135.367397,81.1157838 C135.586438,81.8194865 136.288973,82.2395676 137.010205,82.0522703 C145.496712,79.8448378 154.178219,78.4508108 162.485753,75.5905135 C163.813356,75.132973 163.693151,73.5088378 162.485753,73.0084865 C161.273014,72.5081351 160.103014,71.9328649 158.957055,71.3281622 C164.376986,70.1642432 174.084247,69.1207297 176.007534,63.9887838 C178.481096,57.3905676 174.701301,47.6564595 172.778014,41.3070811 C172.484178,40.3358108 171.279452,40.0093784 170.544863,40.7157568 C165.798082,45.2858108 162.325479,50.8431892 158.831507,56.3871892 C158.962397,56.0099189 158.935685,55.5711081 158.77274,55.2045405 C158.153014,53.8212162 157.613425,52.4084595 157.111233,50.985 C160.696027,49.1682162 163.898836,44.649 161.996918,40.6675946 C161.254315,39.1103514 158.949041,40.4695946 159.691644,42.0188108 C160.372808,43.4449459 159.755753,44.9781081 158.711301,46.2651081 C158.786096,46.1527297 158.866233,46.043027 158.908973,45.8931892 C159.221507,44.847 159.35774,43.7874324 158.986438,42.7385676 C158.652534,41.7887027 158.030137,41.0957027 157.990068,40.0495135 C157.963356,39.3725676 157.399726,38.6421081 156.654452,38.7116757 C155.00363,38.8641892 154.533493,39.8541892 154.074041,41.3070811 C154.012603,41.5104324 153.996575,41.6977297 154.017945,41.8662973 C153.371507,40.1110541 152.658288,38.3825676 151.798151,36.7075946 C151.921027,36.7343514 152.041233,36.7611081 152.16411,36.7851892 C153.27,38.1123243 155.147877,36.2072432 154.052671,34.8934865 C152.407192,32.9188378 150.529315,32.4666486 148.395,33.2265405 C146.255342,30.5401622 143.274247,31.1020541 140.856781,33.255973 C140.159589,32.0706486 139.331507,31.0378378 138.241644,30.0505135 C137.744795,29.601 136.82589,29.4618649 136.353082,30.0505135 C135.48226,31.1288108 134.894589,32.2552703 134.39774,33.5476216 C133.778014,35.1610541 136.358425,35.8513784 136.975479,34.2593514 C137.109041,33.8606757 137.277329,33.4834054 137.475,33.1168378 C138.252329,34.0372703 138.86137,35.0326216 139.379589,36.1965405 C139.710822,36.9403784 140.968973,37.0955676 141.476507,36.4667838 C142.817466,34.8078649 144.986507,32.3275135 146.789589,35.549027 C147.158219,36.2045676 147.980959,36.3651081 148.616712,36.027973 C148.926575,36.0921892 149.233767,36.1590811 149.546301,36.225973 C144.954452,39.4849459 141.636781,44.8095405 139.205959,49.9281081 C139.016301,49.7809459 138.823973,49.6364595 138.642329,49.5026757 C138.38589,49.3153784 138.10274,49.2137027 137.82226,49.0879459 C138.97089,47.8892432 139.09911,46.1366757 138.324452,44.4964865 C138.439315,44.3680541 138.527466,44.2690541 138.538151,44.2663784 C139.315479,44.0416216 139.603973,43.3325676 139.443699,42.6663243 C139.486438,42.6663243 139.515822,42.6850541 139.561233,42.6797027 C140.731233,42.5807027 141.583356,42.1044324 142.440822,41.3151081 C143.715,40.1458378 141.818425,38.2594865 140.55226,39.4234054 C140.258425,39.6936486 139.977945,39.9692432 139.561233,40.004027 C138.786575,40.0682432 138.380548,40.6622432 138.308425,41.2722973 C136.601507,40.0307838 134.106575,40.0816216 132.677466,41.8181351 C131.590274,43.1372432 133.470822,45.0423243 134.566027,43.7098378 C134.996096,43.1880811 135.506301,43.0328919 136.000479,43.1238649 C135.997808,43.1238649 135.995137,43.1292162 135.989795,43.1318919 C135.375411,43.4395946 135.110959,44.3921351 135.508973,44.9620541 C136.091301,45.7968649 136.748425,47.0999189 135.436849,47.5735135 C134.865205,47.7795405 134.595411,48.2424324 134.541986,48.7213784 C133.810068,48.8391081 133.072808,49.0665405 132.346233,49.3474865 C132.848425,48.8792432 133.043425,48.0899189 132.399658,47.4771892 C129.268973,44.5071892 127.564726,40.2822973 125.657466,36.4748108 C124.54089,34.2513243 123.26137,31.8619459 120.555411,31.8432162 C118.541301,31.8298378 115.319795,36.2661081 114.171164,37.6173243 C111.427808,40.8548919 109.419041,44.6837838 107.044315,48.1889189 C106.878699,48.4324054 106.835959,48.6651892 106.83863,48.8899459 C101.57363,46.8430541 96.4421918,45.3634054 90.9073973,45.3259459 C91.1478082,45.2269459 91.374863,45.0610541 91.5297945,44.7506757 C92.1762329,43.461 93.1939726,42.8027838 94.4815068,43.7018108 C95.1012329,44.1352703 95.9346575,43.7954595 96.3086301,43.2228649 C96.7146575,42.3372162 97.4439041,41.8181351 98.4963699,41.6629459 C98.8970548,41.8208108 99.5221233,41.6495676 99.794589,41.3204595 C100.344863,40.3705946 101.255753,40.0789459 102.521918,40.4428378 C103.969726,41.3873514 105.308014,39.0702162 103.868219,38.1337297 C101.872808,36.8333514 99.9521918,37.3524324 98.4189041,38.8775676 C96.8428767,38.6233784 95.6915753,39.5946486 94.7326027,40.8415135 C92.5608904,40.0655676 90.3063699,41.2268108 89.2191781,43.4021351 C88.7891096,44.261027 89.3233562,45.0423243 90.009863,45.3152432 C88.9600685,45.3393243 87.899589,45.4062162 86.8177397,45.54 C80.3373288,46.3560811 78.2484247,38.4815676 71.0441096,40.4669189 C70.5018493,40.6167568 69.9302055,40.7050541 69.3505479,40.7692703 C69.6123288,40.6782973 69.8527397,40.5043784 70.0183562,40.1752703 C70.6594521,38.907 72.6762329,37.5102973 73.7928082,39.0889459 C74.7811644,40.482973 77.0971233,39.1478108 76.0980822,37.7377297 C73.8435616,34.559027 69.3665753,35.5463514 67.710411,38.8240541 C67.2269178,39.7792703 67.9374658,40.6649189 68.7308219,40.8254595 C62.1382192,41.2856757 53.6143151,37.7484324 49.4525342,45.5721081 C49.3910959,45.6871622 49.3777397,45.7995405 49.3510274,45.9119189 C48.1783562,44.8684054 47.0030137,43.8248919 45.7502055,42.8616486 C45.2640411,42.4897297 44.5347945,42.7037838 44.1314384,43.0703514 C41.0461644,45.8744595 39.1228767,49.4438108 37.1114384,53.0532973 C35.49,55.9671081 33.6308219,58.5839189 32.1616438,61.5004054 C31.739589,61.5565946 31.3202055,61.5940541 30.8954795,61.6529189 C29.4209589,61.8562703 29.7762329,63.8175405 30.9943151,64.1841081 C30.959589,64.2724054 30.9168493,64.35 30.8821233,64.4382973 C30.2944521,66.0624324 32.874863,66.7581081 33.4571918,65.150027 C33.5960959,64.7674054 33.7670548,64.3714054 33.9219863,63.9780811 C38.8717808,63.4456216 43.6426027,63.3787297 48.6725342,63.7212162 C52.8823973,64.0048378 57.1723973,64.2162162 61.2353425,63.0201892 C59.7421233,64.6871351 58.3450685,66.429 57.0575342,68.2056486 C56.4725342,69.0083514 57.0014384,69.7735946 57.7360274,70.0304595 C57.3620548,69.9421622 56.9880822,69.8485135 56.6167808,69.7628919 C54.9392466,69.3829459 54.2260274,71.9622973 55.9062329,72.3449189 C57.4181507,72.6874054 58.9380822,73.0673514 60.4606849,73.4446216 C57.1777397,75.2881622 42.1867808,74.7904865 38.6420548,71.8766757 C34.6352055,68.5829189 33.2167808,75.5771351 28.08,68.4277297 C27.5804795,67.7320541 26.6375342,67.5072973 25.9830822,68.1548108 C24.7836986,69.3401351 14.2510274,58.4929459 20.2880137,56.7510811 C23.7793151,55.7477027 24.6634932,50.8967027 29.3969178,52.1007568 C30.0780822,52.272 30.8741096,51.8867027 31.039726,51.1642703 C31.6033562,48.7133514 32.6665068,40.8147568 38.805,45.8771351 C40.124589,46.9634595 42.0238356,45.0824595 40.6935616,43.9854324 C38.1879452,41.9171351 34.1330137,40.4348108 31.0343836,42.2542703 C30.3291781,42.669 29.9258219,43.2201892 29.64,43.8248919 C29.2286301,41.2428649 29.1858904,38.6207027 28.9134247,36.0038919 C28.6756849,33.7242162 28.0719863,31.4525676 28.275,29.1702162 C31.8544521,30.0398108 35.0893151,31.8405405 38.2253425,33.7750541 C37.3358219,34.7944865 36.4169178,35.7951892 35.4419178,36.7504054 C35.1560959,37.0286757 35.0519178,37.3470811 35.054589,37.6521081 C33.4304795,37.8768649 33.4331507,40.4588919 35.1213699,40.3063784 C46.1455479,39.3056757 55.7272603,32.5362162 66.7647945,32.0652973 C68.0149315,32.0117838 68.3461644,30.5883243 67.7745205,29.8418108 C68.4289726,30.5053784 69.534863,30.0745946 69.8687671,29.2504865 C76.8780822,32.1455676 83.299726,36.2393514 90.1460959,39.4876216 C90.9821918,39.8836216 92.2376712,39.4314324 92.154863,38.3317297 C91.8156164,33.8205405 91.4523288,29.0364324 90.7765068,24.2844324 C91.1397945,24.5707297 91.6286301,24.6456486 92.1334932,24.2737297 C94.1609589,22.77 96.9123288,22.5532703 99.3244521,23.1365676 C99.5034247,23.1820541 99.6690411,23.1767027 99.8266438,23.1552973 C98.8035616,23.5004595 97.9193836,24.3299189 97.5694521,25.6650811 C97.1286986,27.3347027 99.7064384,28.0437568 100.144521,26.3768108 C100.368904,25.5125676 101.098151,25.2557027 101.619041,26.0717838 C102.276164,27.1072703 103.619795,26.7139459 104.012466,25.8764595 C104.207466,26.9494054 106.109384,27.2410541 106.654315,25.9165946 C106.996233,25.0924865 108.18226,25.4563784 108.433356,26.1333243 C109.023699,27.7387297 111.606781,27.0430541 111.005753,25.4215946 C110.743973,24.7098649 110.316575,24.1693784 109.822397,23.7492973 C110.43411,24.0222162 110.992397,24.4717297 111.395753,25.146 C112.274589,26.6283243 114.582534,25.2824595 113.701027,23.7947838 C111.638836,20.3190811 106.632945,19.6394595 103.993767,22.869 C103.406096,23.5860811 103.699932,24.4583514 104.258219,24.9105405 C104.210137,25.0068649 104.143356,25.0764324 104.097945,25.1781081 C104.06589,25.0282703 104.023151,24.8757568 103.924315,24.7178919 C102.992055,23.2516216 101.466781,22.7485946 100.117808,23.067 C101.015342,22.7111351 101.317192,21.3732973 100.518493,20.781973 C101.408014,20.6321351 102.300205,20.5197568 103.19774,20.4608919 C103.553014,20.5438378 103.91363,20.600027 104.28226,20.5812973 C104.795137,20.5572162 105.32137,20.4742703 105.852945,20.3672432 C109.312192,20.3725946 112.795479,20.7525405 116.24137,20.7953514 C116.412329,20.798027 116.553904,20.7552162 116.692808,20.7097297 C115.46137,23.5834054 114.256644,26.4838378 113.07863,29.4270811 C111.449178,29.6117027 109.817055,29.8150541 108.192945,30.0585405 C106.49137,30.3154054 107.217945,32.8920811 108.903493,32.6378919 C116.468425,31.4953784 124.134863,31.3482162 131.686438,30.1093784 C132.284795,30.0130541 132.640068,29.3682162 132.666781,28.8197027 C132.746918,27.0457297 132.714863,25.2878108 132.626712,23.5325676 C133.815411,23.7466216 135.017466,23.9446216 136.227534,24.1238919 C135.583767,24.5118649 134.988082,24.9533514 134.41911,25.5152432 C133.190342,26.7273243 135.078904,28.619027 136.307671,27.4069459 C136.815205,26.9065946 137.306712,26.4062432 137.982534,26.136 C138.725137,25.8416757 138.952192,25.1165676 138.831986,24.4931351 C140.14089,24.6670541 141.449795,24.8329459 142.766712,24.9961622 C142.673219,25.055027 142.579726,25.1005135 142.488904,25.1941622 C141.770342,25.9620811 141.241438,26.8450541 140.672466,27.7226757 C139.729521,29.1755676 142.045479,30.5134054 142.97774,29.0738919 C143.421164,28.3915946 143.816507,27.6825405 144.374795,27.0858649 C144.967808,26.4517297 144.780822,25.6597297 144.302671,25.1888108 C145.403219,25.3225946 146.503767,25.4617297 147.604315,25.6008649 C147.326507,26.0236216 147.03,26.4303243 146.674726,26.8075946 C145.496712,28.0624865 147.382603,29.9595405 148.563288,28.6992973 C149.281849,27.9367297 149.893562,27.0912162 150.393082,26.1707838 C150.427808,26.1065676 150.427808,26.045027 150.449178,25.9834865 C150.815137,26.0343243 151.173082,26.0958649 151.539041,26.1493784 C151.531027,26.1547297 151.523014,26.1574054 151.517671,26.1627568 C150.946027,26.7835135 150.47589,27.4818649 149.904247,28.1026216 C148.734247,29.3655405 150.620137,31.2625946 151.792808,29.9943243 C152.364452,29.3762432 152.834589,28.6752162 153.406233,28.0544595 C153.884384,27.5353784 153.836301,26.9226486 153.550479,26.4517297 C153.89774,26.5079189 154.242329,26.5774865 154.589589,26.639027 C154.247671,27.3293514 153.670685,27.8832162 153.133767,28.4237027 C151.915685,29.6464865 153.804247,31.5381892 155.022329,30.3154054 C155.981301,29.3494865 156.798699,28.4290541 157.298219,27.1474054 C165.520274,28.8277297 173.282877,31.7094324 179.613699,38.0614865 C190.661918,49.1601892 186.200959,67.1835405 176.114384,77.3404054 Z M103.598425,72.0505946 C104.731027,70.0144054 107.693425,67.4591351 108.580274,71.0873514 C108.716507,71.6385405 109.087808,71.9114595 109.509863,71.9944054 C109.322877,72.4974324 109.103836,72.9897568 108.938219,73.5008108 C108.574932,72.9977838 107.933836,72.7141622 107.25,73.1288919 C105.340068,74.2901351 101.103493,76.4172973 99.4019178,73.9342703 C99.0973973,73.4901081 98.6619863,73.3375946 98.234589,73.3563243 C97.7671233,72.7542973 97.3236986,72.1388919 96.8749315,71.5234865 C96.8989726,71.478 96.9336986,71.4539189 96.9523973,71.4030811 C97.9594521,68.8371081 100.903151,67.8417568 101.106164,71.3736486 C101.18363,72.6499459 102.919932,73.2707027 103.598425,72.0505946 Z M96.525,75.4674324 C99.3137671,78.8842703 102.209384,82.2154865 105.04089,85.6002162 C101.544247,86.031 98.0128767,85.4209459 94.4921918,85.1587297 C90.4265753,84.8590541 86.3182192,84.9955135 82.255274,85.3647568 C83.3531507,82.7586486 84.7582192,80.3050541 85.7706164,77.6534595 C86.1392466,76.6875405 89.31,67.2798649 91.5057534,69.0137027 C93.4797945,70.5736216 94.9089041,73.4874324 96.525,75.4674324 Z M113.535411,51.4666216 C112.143699,50.985 110.808082,50.3722703 109.400342,49.9441622 C109.354932,49.9307838 109.322877,49.9414865 109.280137,49.9334595 C109.210685,49.8826216 109.143904,49.8291081 109.061096,49.788973 C109.154589,49.7087027 109.253425,49.6391351 109.333562,49.5214054 C111.12863,46.8724865 112.771438,44.1218919 114.571849,41.4756486 C116.297466,38.9391081 118.899247,37.3497568 120.632877,34.9764324 C121.407534,33.9168649 124.869452,40.8281351 125.203356,41.472973 C126.70726,44.3546757 128.117671,47.0972432 130.495068,49.3555135 C130.772877,49.6204054 131.085411,49.7140541 131.384589,49.7140541 C130.893082,49.9441622 130.417603,50.1956757 129.963493,50.4552162 C129.172808,48.6036486 128.120342,47.1721622 126.643151,46.6477297 C125.435753,46.2169459 124.100137,46.4176216 122.780548,46.8751622 C123.170548,46.0831622 122.809932,44.8924865 121.655959,44.8924865 C120.071918,44.8924865 119.962397,47.132027 121.295342,47.4959189 C120.229521,48.0096486 119.217123,48.609 118.327603,49.1361081 C118.199384,48.609 117.80137,48.1568108 117.096164,48.1568108 C115.824658,48.1568108 115.498767,49.607027 116.105137,50.3722703 C115.335822,50.7896757 114.571849,51.2177838 113.797192,51.6191351 C113.70637,51.5656216 113.639589,51.5040811 113.535411,51.4666216 Z M138.79726,55.2473514 C139.147192,56.7457297 141.642123,56.9464054 142.745342,57.1524324 C144.794178,57.5377297 146.896438,57.0480811 148.961301,57.0507568 C151.402808,58.5544865 151.541712,59.5872973 149.380685,60.1465135 C148.801027,60.3364865 148.213356,60.4997027 147.620342,60.6334865 C146.415616,60.9331622 145.186849,61.1391892 143.976781,61.4308378 C140.007329,62.3914054 139.395616,65.5647568 139.652055,69.2464865 C139.817671,71.6626216 138.19089,71.766973 136.032534,71.379 C133.620411,70.9455405 132.781644,69.4337838 132.193973,67.2959189 C132.14589,67.1273514 132.084452,66.9855405 132.033699,66.8223243 C132.640068,66.6162973 133.126233,66.0463784 132.936575,65.2463514 C132.327534,62.7178378 132.017671,57.3638108 130.834315,53.0078108 C134.02911,51.0973784 137.763493,50.8164324 138.79726,55.2473514 Z M150.029795,39.1852703 C152.455274,44.3412973 153.737466,49.9495135 155.906507,55.2179189 C155.511164,55.3704324 155.099795,55.4828108 154.675068,55.5443514 C152.992192,55.9162703 153.708082,58.4956216 155.385616,58.1263784 C156.427397,57.8962703 157.332945,57.4868919 158.283904,57.0186486 C158.401438,56.9624595 158.476233,56.8714865 158.561712,56.7885405 C156.528904,60.0127297 154.480068,63.2262162 152.156096,66.231 C151.96911,66.4744865 151.902329,66.7313514 151.880959,66.9855405 C150.133973,65.8055676 148.400342,64.5934865 146.650685,63.4108378 C148.699521,62.9399189 150.940685,62.6536216 152.14274,61.7064324 C153.769521,60.4247838 154.632329,57.5216757 152.831918,55.8814865 C150.622808,53.8747297 148.093151,54.5516757 145.499384,54.656027 C146.108425,54.1744054 146.151164,53.1763784 145.614247,52.6305405 C146.332808,51.9027568 146.038973,50.3241081 144.71137,50.3241081 C144.706027,50.3241081 144.703356,50.3267838 144.698014,50.3267838 C145.355137,49.5775946 145.03726,48.0604865 143.741712,48.0604865 C143.418493,48.0604865 143.17274,48.1755405 142.972397,48.3307297 C144.818219,44.8898108 147.120822,41.5505676 150.029795,39.1852703 Z M156.02137,42.7626486 C156.475479,43.6723784 156.638425,44.1058378 156.320548,45.1680811 C155.911849,46.538027 157.592055,47.2337027 158.47089,46.5059189 C157.795068,47.2711622 156.993699,47.9400811 156.224384,48.4136757 C155.556575,46.3828378 154.904795,44.343973 154.18089,42.3372162 C154.552192,42.8964324 155.404315,43.0971081 156.02137,42.7626486 Z M170.849384,44.2556757 C172.350616,49.3956486 173.664863,54.6854595 173.907945,60.0207568 C174.225822,67.0042703 161.652329,67.6838919 156.614384,69.1207297 C156.293836,69.2117027 156.088151,69.3963243 155.933219,69.6077027 C155.230685,69.1822703 154.536164,68.7434595 153.844315,68.2939459 C153.911096,68.2377568 153.983219,68.202973 154.041986,68.1253784 C155.187945,66.6430541 156.256438,65.0965135 157.303562,63.5339189 C157.263493,64.2322703 157.685548,64.9573784 158.583082,64.9573784 C160.306027,64.9573784 160.306027,62.2817027 158.583082,62.2817027 C158.388082,62.2817027 158.222466,62.3271892 158.072877,62.3860541 C162.130479,56.1784865 165.803425,49.6632162 170.849384,44.2556757 Z M143.739041,50.7388378 C143.744384,50.7388378 143.747055,50.7361622 143.752397,50.7361622 C143.295616,51.2552432 143.319658,52.1355405 143.808493,52.6332162 C143.292945,53.1576486 143.308973,54.1048378 143.856575,54.6051892 C143.723014,54.5918108 143.589452,54.5918108 143.458562,54.5704054 C143.055205,54.5061892 142.76137,54.4553514 142.512945,54.4045135 C143.469247,53.7891081 143.247534,51.9455676 141.813082,51.9455676 C141.532603,51.9455676 141.31089,52.0338649 141.121233,52.1569459 C141.113219,52.1408919 141.107877,52.1248378 141.099863,52.1114595 C141.52726,51.174973 141.978699,50.2277838 142.470205,49.2698919 C142.408767,49.9842973 142.822808,50.7388378 143.739041,50.7388378 Z M114.521096,54.5677297 C117.750616,52.6572973 120.843904,50.4445135 124.43137,49.2404595 C125.60137,48.8498108 126.568356,50.2224324 127.364384,52.3255135 C126.955685,52.9355676 127.302945,53.6606757 127.925342,54.0058378 C128.788151,56.916973 129.41589,60.5237838 129.843288,63.0924324 C129.589521,62.9185135 129.30637,62.8489459 129.020548,62.8596486 C128.985822,62.8409189 128.964452,62.8141622 128.929726,62.7981081 C128.256575,62.4502703 127.634178,62.7205135 127.260205,63.1807297 C127.236164,63.1191892 127.209452,63.0576486 127.188082,62.9961081 C125.708219,62.6937568 124.228356,62.3967568 122.745822,62.1051081 C119.77274,61.5111081 116.788973,60.9706216 113.797192,60.4542162 C110.840137,59.9404865 107.861712,59.5337838 104.883288,59.1725676 C108.080753,57.5992703 111.449178,56.3791622 114.521096,54.5677297 Z M71.4421233,57.6581351 C74.3484247,62.4850541 76.9608904,67.7588108 78.1121918,73.2894324 C77.4710959,73.3268919 76.8326712,73.3563243 76.1915753,73.350973 C76.9715753,72.6472703 76.7017808,71.0017297 75.3447945,71.0017297 C74.0278767,71.0017297 73.7260274,72.5536216 74.4205479,73.2921081 C68.8884247,72.963 63.4417808,71.3843514 58.0458904,70.0946757 C58.5106849,70.1508649 59.004863,70.0117297 59.3467808,69.5408108 C62.6217123,65.034973 66.6873288,60.6629189 71.4421233,57.6581351 Z M53.8173288,58.8193784 C52.4015753,58.8193784 52.1691781,60.6094054 53.0827397,61.2515676 C50.9938356,61.2167838 48.8942466,61.0482162 46.8320548,60.9090811 C42.8732877,60.6388378 39.0160274,60.7672703 35.1267123,61.1418649 C37.6376712,55.7798108 41.3026027,50.0672432 44.8393151,46.0082432 C45.7582192,44.9513514 55.8634932,56.232 59.7421233,60.6334865 C58.0432192,61.0455405 56.3042466,61.2194595 54.5519178,61.2542432 C55.4681507,60.6147568 55.2357534,58.8193784 53.8173288,58.8193784 Z M97.8312329,19.1284054 C97.7083562,19.4762432 97.7484247,19.8722432 97.9193836,20.2200811 C95.4110959,20.006027 92.774589,20.4689189 90.7658219,21.9592703 C90.6269178,22.0636216 90.5334247,22.184027 90.4479452,22.3097838 C90.3945205,21.9913784 90.3517808,21.672973 90.2983562,21.3572432 C90.5895205,21.4375135 90.915411,21.4348378 91.2546575,21.2635946 C93.5171918,20.1184054 95.3843836,19.4013243 97.8312329,19.1284054 Z M130.065,24.9426486 C130.243973,29.3521622 122.406575,28.5628378 119.099589,28.8330811 C118.081849,28.916027 117.066781,29.0230541 116.051712,29.1220541 C119.345342,20.9318108 122.82863,13.0519459 127.006438,5.32459459 C128.478288,11.7970541 129.795205,18.2748649 130.065,24.9426486 Z M118.367671,13.1001081 C118.939315,13.1001081 119.481575,13.1536216 120.023836,13.2419189 C119.657877,14.0205405 119.281233,14.7964865 118.923288,15.5804595 C118.661507,14.7376216 118.399726,13.8947838 118.135274,13.0546216 C118.21274,13.0653243 118.276849,13.1001081 118.367671,13.1001081 Z M111.262192,3.48908108 C114.718767,6.42964865 115.685753,14.0446216 117.010685,18.3952703 C113.666301,15.6205946 110.610411,16.5008919 106.595548,17.6112973 C106.347123,17.6781892 106.098699,17.6995946 105.852945,17.7317027 C105.27863,17.7317027 104.704315,17.7424054 104.132671,17.7638108 C103.894932,17.7370541 103.657192,17.6915676 103.419452,17.6514324 C104.656233,17.2152973 104.511986,15.0694054 102.962671,15.0694054 C101.645753,15.0694054 101.343904,16.6212973 102.035753,17.3597838 C100.339521,16.937027 98.6299315,16.3992162 96.9230137,16.5035676 C97.8659589,15.5563784 98.9852055,14.4379459 100.197945,13.2419189 C100.312808,13.7904324 100.713493,14.2667027 101.440068,14.2667027 C103.026781,14.2667027 103.136301,12.0298378 101.806027,11.6659459 C106.12274,7.44372973 110.786712,3.08505405 111.262192,3.48908108 Z M97.8232192,12.0298378 C96.0281507,13.7449459 94.2250685,15.452027 92.4593836,17.2072703 C92.2430137,17.4213243 92.1521918,17.6541081 92.1094521,17.8895676 C91.3588356,18.2293784 90.6189041,18.5905946 89.9030137,18.9518108 C89.8709589,18.9678649 89.8576027,18.9919459 89.8308904,19.008 C89.3660959,16.7524054 88.8158219,14.5289189 88.105274,12.375 C91.3508219,12.375 94.5936986,12.3482432 97.8232192,12.0298378 Z M82.8349315,6.88986486 C87.4882192,15.5162432 88.5513699,26.3393514 89.2913014,36.0654324 C82.7414384,32.7743514 76.474726,28.9454595 69.6336986,26.2537297 C69.3505479,26.1413514 69.1074658,26.1574054 68.8884247,26.2162703 C68.3889041,25.1513514 67.894726,24.0837568 67.4032192,23.0134865 C72.15,17.2420541 77.3562329,11.9549189 82.8349315,6.88986486 Z M67.4940411,29.493973 C67.5447945,29.601 67.6169178,29.6598649 67.6810274,29.7374595 C67.4673288,29.5127027 67.1574658,29.3655405 66.7434247,29.3842703 C56.8999315,29.8016757 48.2958904,35.153027 38.7809589,37.0607838 C43.0308904,32.5281892 46.41,27.3748378 49.7009589,22.1438919 C50.8041781,22.2455676 51.3891781,20.996027 50.9510959,20.1638919 C52.9785616,16.9423784 55.0460959,13.7449459 57.3139726,10.683973 C61.8684247,16.2252973 64.3820548,23.0884054 67.4940411,29.493973 Z M46.9843151,21.5605946 C44.769863,25.0577027 42.4726027,28.4879189 39.894863,31.7094324 C39.8414384,31.6639459 39.814726,31.6131081 39.7506164,31.572973 C35.9387671,29.2183784 31.9639726,26.9226486 27.4816438,26.2189459 C26.7764384,26.1065676 26.0311644,26.3875135 25.8388356,27.1527568 C25.0855479,30.1414865 25.8521918,33.0044595 26.2208219,35.9931892 C26.6749315,39.6963243 26.5627397,43.3941081 27.575137,47.0116216 C27.7380822,47.5949189 28.1654795,47.8705135 28.6249315,47.9320541 C28.1628082,49.4384595 27.5350685,48.5046486 25.5743836,49.0451351 C23.2931507,49.6739189 18.6318493,53.1951081 17.2374658,54.6346216 C14.3765753,57.5885676 14.6971233,60.1438378 17.2347945,63.3707027 C19.7831507,66.6136216 18.4555479,72.4412432 23.8968493,72.4412432 C23.9876712,72.4412432 26.7096575,71.0953784 26.9206849,71.3897027 C27.7861644,72.5937568 29.2126027,74.0305946 30.7058219,74.4453243 C33.1393151,75.1169189 36.0322603,73.1797297 38.0810959,74.8654054 C39.4915068,76.0266486 41.3106164,76.6688108 43.1724658,76.5162973 C50.3233562,75.9276486 55.3185616,79.8368108 61.9138356,75.6814865 C62.6136986,75.24 62.6564384,74.4774324 62.3599315,73.9048378 C68.0656849,75.3042162 73.8462329,76.535027 79.709589,75.8634324 C80.6391781,75.7564054 81.1386986,75.0955135 80.9971233,74.1697297 C79.9793836,67.5126486 76.6830822,61.0508919 73.1784247,55.3650811 C73.9584247,54.7282703 74.9841781,54.2546757 75.5130822,55.3945135 C75.969863,56.3818378 77.3028082,56.1383514 77.8183562,55.3945135 C78.6891781,54.1396216 79.4531507,53.0827297 80.7219863,54.5784324 C81.8358904,55.8948649 83.7191096,53.9924595 82.6105479,52.6867297 C80.5670548,50.2732703 78.4167123,50.9100811 76.6777397,52.6572973 C74.9280822,51.389027 72.2862329,52.3415676 70.7289041,53.9897838 C70.3843151,54.3563514 70.3202055,54.7710811 70.4030137,55.1537027 C67.8306164,56.7296757 65.4558904,58.6588378 63.2895205,60.8100811 C63.2280822,60.6602432 63.1773288,60.5104054 63.0571233,60.3712703 C59.1891781,55.9457027 55.345274,51.5014054 51.0926712,47.4771892 C51.3437671,47.3835405 51.5788356,47.2176486 51.7444521,46.9045946 C55.7486301,42.0696486 60.4820548,41.5050811 65.9500685,45.2162432 C66.3106849,45.6604054 67.1067123,45.7246216 67.5688356,45.4249459 C74.7010274,40.7826486 78.3819863,48.5768919 84.3254795,48.3066486 C93.0203425,47.9133243 100.120479,48.9675405 108.259726,52.3067838 C108.275753,52.3148108 108.28911,52.3094595 108.305137,52.3148108 C108.42,52.3950811 108.534863,52.478027 108.692466,52.5235135 C109.346918,52.7215135 109.985342,52.965 110.623767,53.2138378 C107.685411,54.6694054 104.741712,56.0982162 101.859452,57.6982703 C101.600342,57.8427568 101.453425,58.0354054 101.349247,58.2414324 C101.274452,57.9604865 101.116849,57.6848919 100.817671,57.4788649 C99.0760274,56.2801622 97.2061644,56.7885405 95.7209589,58.1263784 C94.4387671,59.2822703 96.3326712,61.1686216 97.6095205,60.0180811 C97.9995205,59.6675676 98.3334247,59.499 98.6967123,59.5123784 C98.6005479,59.9699189 98.7207534,60.4836486 99.0626712,60.8475405 C98.6539726,60.9331622 98.3013699,61.2087568 98.2025342,61.7706486 C97.8819863,63.6141892 96.6959589,62.6455946 96.4315068,61.3291622 C96.0949315,59.6381351 93.519863,60.3552162 93.8564384,62.0408919 C94.1823288,63.6757297 95.3603425,65.2062162 97.075274,65.4951892 C99.06,65.8296486 100.459726,64.3285946 100.777603,62.4823784 C100.85774,62.0141351 100.710822,61.6341892 100.462397,61.3425405 C104.984795,61.8000811 109.472466,62.4449189 113.94411,63.2074865 C113.925411,63.2342432 113.898699,63.2476216 113.882671,63.2743784 C112.726027,65.1874865 111.668219,67.1246757 110.727945,69.1127027 C109.175959,65.6557297 105.577808,66.2042432 103.053493,68.499973 C102.447123,67.2878919 101.448082,66.3487297 99.9041096,66.2657838 C97.695,66.1453784 96.1643836,67.427027 95.1439726,69.1394595 C93.8697945,67.3654865 92.0213014,65.2195946 89.7961644,65.8323243 C87.0581507,66.5868649 85.6156849,71.1274865 84.6513699,73.3375946 C82.8215753,77.5196757 80.6792466,81.683027 79.1432877,85.9667838 C78.894863,86.1995676 78.745274,86.4992432 78.6918493,86.8203243 C67.9989041,86.13 57.3219863,85.1721081 46.6744521,84.0215676 C33.0965753,82.5526216 11.9377397,84.15 5.16082192,70.1588919 C4.72808219,68.5775676 4.37280822,66.9186486 4.19383562,65.0804595 C4.13239726,64.440973 3.71568493,64.0396216 3.22952055,63.8790811 C-1.11123288,39.4046757 23.7285616,17.1457297 46.9843151,21.5605946 Z M138.872055,92.9583243 C123.45637,94.4700811 107.511781,93.2419459 92.0426712,93.0198649 C75.315411,92.7763784 58.5988356,91.6499189 41.9116438,90.5555676 C30.855411,89.8304595 19.2061644,87.9334054 11.7854795,81.1773243 C12.2582877,81.3806757 12.7391096,81.5706486 13.2413014,81.7285135 C23.709863,85.0088919 35.8025342,85.437 46.6744521,86.6918919 C63.2307534,88.6023243 79.869863,89.7154054 96.5196575,90.3468649 C115.30911,91.0585946 154.031301,94.7965135 174.768082,82.1512703 C166.618151,90.3575676 147.81,92.0833784 138.872055,92.9583243 Z M188.012055,50.5408378 C186.171575,39.0327568 179.490822,32.6673243 170.833356,28.8223784 C172.764658,29.5902973 174.674589,30.4197568 176.557808,31.3482162 C191.612877,38.7678649 194.209315,54.1984865 187.488493,66.0918649 C188.714589,61.6877027 188.973699,56.5477297 188.012055,50.5408378 Z" id="Shape"></path>
                </g>
            </g>
        </g>
    </g>
</svg>