<?xml version="1.0" encoding="UTF-8"?>
<svg width="200px" height="200px" viewBox="0 0 200 200" version="1.1" xmlns="http://www.w3.org/2000/svg" xmlns:xlink="http://www.w3.org/1999/xlink">
    <!-- Generator: Sketch 42 (36781) - http://www.bohemiancoding.com/sketch -->
    <title>raccoon</title>
    <desc>Created with Sketch.</desc>
    <defs></defs>
    <g id="Page-1" stroke="none" stroke-width="1" fill="none" fill-rule="evenodd">
        <g id="raccoon" stroke="#000000" stroke-width="0.08134776" fill="#000000" fill-rule="nonzero">
            <path d="M164.361493,74.9180948 C164.361493,74.748245 173.376345,57.6978169 175.056013,43.4636146 C175.697686,38.0303765 175.506864,31.8694907 174.426924,28.0509189 C173.068089,23.2509637 171.596021,21.130931 171.596021,21.130931 C171.596021,21.130931 166.642989,19.449165 161.530586,20.187299 C157.728788,20.7367036 153.385974,23.4501744 149.26334,26.1636473 C141.135501,31.5109114 134.794276,45.036338 134.794276,45.036338 C134.794276,45.036338 137.520331,39.5318036 137.834877,39.5318036 C137.996349,39.5318036 114.839555,35.1617264 92.0161816,37.4872617 C70.1112809,39.7205305 45.6208217,49.0205707 45.6208217,49.0205707 L53.0126252,56.6744955 C53.0126252,56.6744955 39.1286167,40.6641651 29.7363101,41.8908887 C27.6770877,42.1592973 22.6779251,41.8447464 18.7272419,43.4636146 C14.5626663,45.1705423 11.49271,48.8108735 11.49271,48.8108735 C11.49271,48.8108735 11.8659698,53.2312793 12.7508892,57.3035843 C13.6588762,61.4807406 15.0869078,65.3265749 15.5817923,66.7399323 C19.9036375,79.0868629 29.7363101,90.3307905 29.7363101,90.3307905 C29.7363101,90.3307905 25.122986,84.8786804 23.392988,82.0477768 C23.392988,82.0477768 20.6774196,101.641823 15.2672479,116.123466 C11.0858987,127.321264 3,137.512515 3,137.512515 C3,137.512515 12.7655681,143.446925 16.8399726,150.40885 C20.2559296,156.24261 18.0981505,163.305188 18.0981505,163.305188 C18.0981505,163.305188 36.8764759,160.753182 55.8435288,163.305188 C68.3078927,164.98276 81.2440701,171.122678 87.6125547,173.685167 C112.21625,183.582845 123.260967,179.730718 123.260967,179.730718 C123.260967,179.730718 132.26953,177.891679 140.14154,171.483355 C145.667042,166.985364 148.464394,158.087939 156.183325,152.925208 C164.88573,147.10613 177.987571,144.151506 184.806904,138.141603 C193.016523,130.904975 197.388696,113.607108 197.388696,113.607108 C197.388696,113.607108 193.635128,110.298096 192.355978,106.058032 C191.120866,101.964754 192.355978,96.9362322 192.355978,96.9362322 C192.355978,96.9362322 185.211618,92.461309 179.145097,86.2417066 C172.644504,79.5796517 167.192394,71.1435592 167.192394,71.1435592 C167.192394,71.1435592 164.361493,75.2326405 164.361493,74.9180948 L164.361493,74.9180948 Z M21.5581458,160.369438 C21.5581458,160.369438 22.7471255,154.512614 18.8320892,147.368252 C16.8504561,143.753082 8.34726176,136.254334 8.34726176,136.254334 L19.9854198,112.978017 C19.9854198,112.978017 38.5477581,99.2554777 58.9889781,91.5889707 C77.4485617,84.6668875 97.9925345,83.7253487 97.9925345,83.7253487 C97.9925345,83.7253487 100.63681,92.7339143 101.452527,101.968948 C101.997737,108.142416 102.081616,117.067101 102.081616,117.067101 C102.081616,117.067101 92.8235135,106.559209 77.8616636,111.405296 C69.8009292,114.016016 59.5824188,117.819912 51.4399018,123.043453 C41.1815467,129.623731 36.656295,138.351301 36.656295,138.351301 L41.6890108,159.740347 L21.5581458,160.369438 L21.5581458,160.369438 Z M177.257828,112.663474 C177.257828,112.663474 172.197852,103.589904 156.812414,104.170763 C151.318366,104.378351 136.394262,101.501326 129.76156,103.541674 C119.882757,106.580176 118.978965,114.865286 119.067037,114.865286 C119.220132,114.865286 113.918987,107.918041 111.832507,100.396227 C109.603432,92.3648486 110.574327,83.7253487 110.574327,83.7253487 C110.574327,83.7253487 130.302577,76.7969758 148.319703,79.0071786 C164.837503,81.0349444 179.774188,92.2180595 179.774188,92.2180595 L188.895988,98.5089582 C188.895988,98.5089582 188.313031,103.753467 189.525077,108.259844 C190.483389,111.820494 192.985069,115.494377 192.985069,115.494377 L183.548724,134.367065 L181.032366,122.414365 L177.257828,112.663474 L177.257828,112.663474 Z M78.490755,159.530652 L101.137981,142.230687 L106.799791,155.756114 C106.799791,155.756114 109.519554,159.832616 108.057969,164.563368 C106.25248,170.409708 109.909587,174.838499 111.727656,176.306374 C113.545727,177.774251 117.964032,179.028235 122.982072,177.705051 C129.166024,176.071515 134.234388,172.043244 135.003973,170.01548 C135.773559,167.987712 135.045914,162.153954 131.334286,158.587018 C129.998518,157.303673 127.035505,154.91523 126.301565,151.981576 C124.693194,145.543893 126.301565,137.197969 126.301565,137.197969 L163.522704,147.577949 C163.522704,147.577949 157.510703,150.373204 154.784648,152.050776 C152.058593,153.728348 144.440319,165.54265 140.386883,169.24589 C136.331352,172.95123 129.962869,177.438738 122.772375,178.891932 C115.11216,180.439494 102.360513,177.564554 95.8599202,175.117397 C89.3593271,172.672335 70.486639,165.402154 70.486639,165.402154 L78.490755,159.530652 L78.490755,159.530652 Z M34.7690259,52.1660226 C27.4548084,49.5175535 20.4844981,49.3351164 20.5096614,49.4399649 C20.5096614,49.4399649 27.5261072,46.3574263 33.7205428,48.601179 C41.7540172,51.5117669 49.4477842,61.8120625 49.4477842,61.8120625 C49.4184233,61.6946446 41.9196781,54.7536767 34.7690259,52.1660226 L34.7690259,52.1660226 Z M154.505753,32.4545459 C147.390749,37.1202943 139.4076,48.1817847 139.4076,48.1817847 C139.4076,48.1817847 145.92497,33.7420819 153.247573,29.099402 C158.452242,25.7987782 164.990581,31.4060628 164.990581,31.4060628 C164.990581,31.4060628 159.955765,28.8792211 154.505753,32.4545459 L154.505753,32.4545459 Z M82.8419577,126.1889 C81.1119615,126.975262 79.1198439,125.612236 78.4383307,124.616177 C77.7568176,123.620118 77.7043933,120.527093 79.8013595,119.47861 C81.8983258,118.430127 84.0477137,119.583448 84.5719565,121.313455 C85.0961968,123.043453 84.5719565,125.402539 82.8419577,126.1889 L82.8419577,126.1889 Z M136.367002,118.95437 C134.32246,119.583458 132.749734,119.164072 131.806102,116.857406 C130.862465,114.550743 131.806102,112.244082 133.745793,111.510142 C135.685489,110.776205 137.415485,112.139231 137.99215,114.0265 C138.568814,115.913769 138.411544,118.325281 136.367002,118.95437 L136.367002,118.95437 Z" id="Shape"></path>
        </g>
    </g>
</svg>