<?xml version="1.0" encoding="UTF-8"?>
<svg width="200px" height="200px" viewBox="0 0 200 200" version="1.1" xmlns="http://www.w3.org/2000/svg" xmlns:xlink="http://www.w3.org/1999/xlink">
    <!-- Generator: Sketch 42 (36781) - http://www.bohemiancoding.com/sketch -->
    <title>streetcar</title>
    <desc>Created with Sketch.</desc>
    <defs></defs>
    <g id="Page-1" stroke="none" stroke-width="1" fill="none" fill-rule="evenodd">
        <g id="streetcar">
            <path d="M61.7703505,132.256 C63.6321649,132.256 65.1328247,133.75666 65.1328247,135.615361 C65.1328247,137.477175 63.6321649,138.977835 61.7703505,138.977835 C59.9147629,138.977835 58.4109897,137.477175 58.4109897,135.615361 C58.4109897,133.759773 59.9178763,132.256 61.7703505,132.256 Z M135.533072,135.665175 C135.533072,137.52699 137.033732,139.027649 138.895546,139.027649 C140.751134,139.027649 142.251794,137.52699 142.251794,135.665175 C142.251794,133.806474 140.751134,132.305814 138.895546,132.305814 C137.033732,132.305814 135.533072,133.806474 135.533072,135.665175 Z M168.665897,100.085216 L168.665897,167.543299 L166.330845,187.002062 L152.578948,187.002062 L152.578948,197.186 L140.514515,197.186 L140.514515,187.132825 L100.332948,187.132825 L100.332948,186.865072 L100.329835,187.079897 L60.148268,187.079897 L60.148268,197.133072 L48.0838351,197.133072 L48.0838351,186.949134 L34.3350515,186.949134 L32,167.490371 L32,100.035402 C32,100.035402 38.9024124,58.0075876 40.8887629,45.2270722 C43.5444948,28.1687423 67.9940412,28.8163299 67.9940412,28.8163299 L84.6631959,28.8163299 L84.6631959,21.8111753 C84.6631959,18.2432165 88.2311546,18.2432165 88.2311546,18.2432165 L96.2108041,18.2432165 L96.2108041,3 L100.364082,3 L100.364082,3.04981443 L104.451979,3.04981443 L104.451979,18.2930309 L112.431629,18.2930309 C112.431629,18.2930309 115.999588,18.2930309 115.999588,21.8609897 L115.999588,28.8661443 L132.668742,28.8661443 C132.668742,28.8661443 157.121402,28.2185567 159.774021,45.2768866 C161.763485,58.0574021 168.665897,100.085216 168.665897,100.085216 Z M143.855196,57.2759381 L102.182309,57.2759381 L102.182309,106.797711 L155.695464,106.797711 L155.695464,106.019361 C155.695464,106.019361 152.905856,73.3286392 152.037216,65.2524742 C151.168577,57.1763093 143.855196,57.2759381 143.855196,57.2759381 Z M138.895546,129.827546 C135.666948,129.827546 133.057918,132.439691 133.057918,135.665175 C133.057918,138.89066 135.666948,141.502804 138.895546,141.502804 C142.117918,141.502804 144.726948,138.89066 144.726948,135.665175 C144.726948,132.439691 142.117918,129.827546 138.895546,129.827546 Z M100.332948,143.981072 L100.332948,144.030887 L100.332948,144.030887 C105.22099,144.030887 109.187464,140.067526 109.187464,135.176371 C109.187464,130.285216 105.22099,126.321856 100.332948,126.321856 L100.323608,126.321856 L100.323608,126.272041 C95.4386804,126.275155 91.4753196,130.238515 91.4753196,135.126557 C91.4753196,140.014598 95.4417938,143.981072 100.332948,143.981072 L100.332948,143.981072 Z M63.392433,43.5427216 C63.392433,46.4444124 65.7461649,48.7981443 68.6478557,48.7981443 L100.357856,48.7981443 L100.357856,48.8479588 L132.021155,48.8479588 C134.922845,48.8479588 137.276577,46.4942268 137.276577,43.5925361 C137.276577,40.687732 134.922845,38.3371134 132.021155,38.3371134 L100.304928,38.3371134 L100.304928,38.287299 L68.6447423,38.287299 C65.7461649,38.287299 63.392433,40.6379175 63.392433,43.5427216 Z M44.970433,106.75101 L98.4835876,106.75101 L98.4835876,57.2261237 L56.810701,57.2261237 C56.810701,57.2261237 49.4942062,57.1296082 48.6286804,65.2057732 C47.7631546,73.2819381 44.970433,105.97266 44.970433,105.97266 L44.970433,106.75101 Z M61.7703505,129.777732 C58.544866,129.777732 55.9358351,132.389876 55.9358351,135.615361 C55.9358351,138.840845 58.544866,141.45299 61.7703505,141.45299 C64.9989485,141.45299 67.6079794,138.840845 67.6079794,135.615361 C67.6079794,132.389876 64.9989485,129.777732 61.7703505,129.777732 Z M161.984536,168.969237 L100.332948,169.1 L100.332948,156.540536 L100.329835,169.053299 L38.6782474,168.922536 L40.3003299,181.830701 L100.364082,181.830701 L100.364082,181.880515 L160.362454,181.880515 L161.984536,168.969237 Z M98.6050103,106.433443 L89.666433,103.622041 L89.8065361,103.173711 L59.5816289,93.662268 L59.1146186,95.1473608 L89.3395258,104.658804 L89.4329278,104.363031 L98.3715052,107.174433 L98.6050103,106.433443 Z M141.529485,95.1473608 L141.062474,93.662268 L110.834454,103.173711 L110.974557,103.622041 L102.039093,106.433443 L102.272598,107.174433 L111.208062,104.363031 L111.301464,104.658804 L141.529485,95.1473608 Z" id="Shape" fill="#000000" fill-rule="nonzero"></path>
            <text id="NOPE" font-family="Helvetica-Bold, Helvetica" font-size="36" font-weight="bold" fill="#DA1F1F">
                <tspan x="49" y="92">NOPE</tspan>
            </text>
        </g>
    </g>
</svg>